# MagicaVoxel @ Ephtracy

# group
o 

# material
mtllib 11.mtl
usemtl palette

# normals
vn -1 0 0
vn 1 0 0
vn 0 0 1
vn 0 0 -1
vn 0 -1 0
vn 0 1 0

# texcoords
vt 0.208984 0.5
vt 0.283203 0.5
vt 0.970703 0.5

# verts
v -0.7 0 0.6
v -0.7 0 -0.6
v -0.7 0.2 0.6
v -0.7 0.2 -0.6
v -0.6 0 0.7
v -0.6 0 0.6
v -0.6 0 -0.6
v -0.6 0 -0.7
v -0.6 0.2 0.7
v -0.6 0.2 0.6
v -0.6 0.2 -0.6
v -0.6 0.2 -0.7
v -0.6 0.3 0.6
v -0.6 0.3 -0.6
v -0.5 0.3 0.5
v -0.5 0.3 -0.5
v -0.5 0.5 0.5
v -0.5 0.5 -0.5
v -0.4 0.5 0.4
v -0.4 0.5 -0.4
v -0.4 0.7 0.4
v -0.4 0.7 -0.4
v -0.3 0.7 0.3
v -0.3 0.7 -0.3
v -0.3 0.9 0.3
v -0.3 0.9 -0.3
v -0.2 0.9 0.2
v -0.2 0.9 -0.2
v -0.2 1.1 0.2
v -0.2 1.1 -0.2
v -0.1 0.7 0.5
v -0.1 0.7 0.4
v -0.1 0.7 0.3
v -0.1 0.7 -0.3
v -0.1 0.7 -0.4
v -0.1 0.7 -0.5
v -0.1 0.9 0.5
v -0.1 0.9 0.3
v -0.1 0.9 -0.3
v -0.1 0.9 -0.5
v -0.1 1.1 0.1
v -0.1 1.1 -0.1
v -0.1 1.2 0.1
v -0.1 1.2 -0.1
v 0.1 0.7 0.5
v 0.1 0.7 0.4
v 0.1 0.7 0.3
v 0.1 0.7 -0.3
v 0.1 0.7 -0.4
v 0.1 0.7 -0.5
v 0.1 0.9 0.5
v 0.1 0.9 0.3
v 0.1 0.9 -0.3
v 0.1 0.9 -0.5
v 0.1 1.1 0.1
v 0.1 1.1 -0.1
v 0.1 1.2 0.1
v 0.1 1.2 -0.1
v 0.2 0.9 0.2
v 0.2 0.9 -0.2
v 0.2 1.1 0.2
v 0.2 1.1 -0.2
v 0.3 0.7 0.3
v 0.3 0.7 -0.3
v 0.3 0.9 0.3
v 0.3 0.9 -0.3
v 0.4 0.5 0.4
v 0.4 0.5 -0.4
v 0.4 0.7 0.4
v 0.4 0.7 -0.4
v 0.5 0.3 0.5
v 0.5 0.3 -0.5
v 0.5 0.5 0.5
v 0.5 0.5 -0.5
v 0.6 0 0.7
v 0.6 0 0.6
v 0.6 0 -0.6
v 0.6 0 -0.7
v 0.6 0.2 0.7
v 0.6 0.2 0.6
v 0.6 0.2 -0.6
v 0.6 0.2 -0.7
v 0.6 0.3 0.6
v 0.6 0.3 -0.6
v 0.7 0 0.6
v 0.7 0 -0.6
v 0.7 0.2 0.6
v 0.7 0.2 -0.6
v -0.6 0 0.7
v -0.6 0.2 0.7
v 0.6 0 0.7
v 0.6 0.2 0.7
v -0.7 0 0.6
v -0.7 0.2 0.6
v -0.6 0 0.6
v -0.6 0.2 0.6
v -0.6 0.3 0.6
v 0.6 0 0.6
v 0.6 0.2 0.6
v 0.6 0.3 0.6
v 0.7 0 0.6
v 0.7 0.2 0.6
v -0.5 0.3 0.5
v -0.5 0.5 0.5
v -0.1 0.7 0.5
v -0.1 0.9 0.5
v 0.1 0.7 0.5
v 0.1 0.9 0.5
v 0.5 0.3 0.5
v 0.5 0.5 0.5
v -0.4 0.5 0.4
v -0.4 0.7 0.4
v -0.1 0.7 0.4
v 0.1 0.7 0.4
v 0.4 0.5 0.4
v 0.4 0.7 0.4
v -0.3 0.7 0.3
v -0.3 0.9 0.3
v -0.1 0.7 0.3
v -0.1 0.9 0.3
v 0.1 0.7 0.3
v 0.1 0.9 0.3
v 0.3 0.7 0.3
v 0.3 0.9 0.3
v -0.2 0.9 0.2
v -0.2 1.1 0.2
v 0.2 0.9 0.2
v 0.2 1.1 0.2
v -0.1 1.1 0.1
v -0.1 1.2 0.1
v 0.1 1.1 0.1
v 0.1 1.2 0.1
v -0.1 1.1 -0.1
v -0.1 1.2 -0.1
v 0.1 1.1 -0.1
v 0.1 1.2 -0.1
v -0.2 0.9 -0.2
v -0.2 1.1 -0.2
v 0.2 0.9 -0.2
v 0.2 1.1 -0.2
v -0.3 0.7 -0.3
v -0.3 0.9 -0.3
v -0.1 0.7 -0.3
v -0.1 0.9 -0.3
v 0.1 0.7 -0.3
v 0.1 0.9 -0.3
v 0.3 0.7 -0.3
v 0.3 0.9 -0.3
v -0.4 0.5 -0.4
v -0.4 0.7 -0.4
v -0.1 0.7 -0.4
v 0.1 0.7 -0.4
v 0.4 0.5 -0.4
v 0.4 0.7 -0.4
v -0.5 0.3 -0.5
v -0.5 0.5 -0.5
v -0.1 0.7 -0.5
v -0.1 0.9 -0.5
v 0.1 0.7 -0.5
v 0.1 0.9 -0.5
v 0.5 0.3 -0.5
v 0.5 0.5 -0.5
v -0.7 0 -0.6
v -0.7 0.2 -0.6
v -0.6 0 -0.6
v -0.6 0.2 -0.6
v -0.6 0.3 -0.6
v 0.6 0 -0.6
v 0.6 0.2 -0.6
v 0.6 0.3 -0.6
v 0.7 0 -0.6
v 0.7 0.2 -0.6
v -0.6 0 -0.7
v -0.6 0.2 -0.7
v 0.6 0 -0.7
v 0.6 0.2 -0.7
v -0.6 0 0.7
v 0.6 0 0.7
v -0.7 0 0.6
v -0.6 0 0.6
v 0.6 0 0.6
v 0.7 0 0.6
v -0.7 0 -0.6
v -0.6 0 -0.6
v 0.6 0 -0.6
v 0.7 0 -0.6
v -0.6 0 -0.7
v 0.6 0 -0.7
v -0.1 0.7 0.5
v 0.1 0.7 0.5
v -0.1 0.7 0.4
v 0.1 0.7 0.4
v -0.1 0.7 -0.4
v 0.1 0.7 -0.4
v -0.1 0.7 -0.5
v 0.1 0.7 -0.5
v -0.6 0.2 0.7
v 0.6 0.2 0.7
v -0.7 0.2 0.6
v -0.6 0.2 0.6
v 0.6 0.2 0.6
v 0.7 0.2 0.6
v -0.7 0.2 -0.6
v -0.6 0.2 -0.6
v 0.6 0.2 -0.6
v 0.7 0.2 -0.6
v -0.6 0.2 -0.7
v 0.6 0.2 -0.7
v -0.6 0.3 0.6
v 0.6 0.3 0.6
v -0.5 0.3 0.5
v 0.5 0.3 0.5
v -0.5 0.3 -0.5
v 0.5 0.3 -0.5
v -0.6 0.3 -0.6
v 0.6 0.3 -0.6
v -0.5 0.5 0.5
v 0.5 0.5 0.5
v -0.4 0.5 0.4
v 0.4 0.5 0.4
v -0.4 0.5 -0.4
v 0.4 0.5 -0.4
v -0.5 0.5 -0.5
v 0.5 0.5 -0.5
v -0.4 0.7 0.4
v -0.1 0.7 0.4
v 0.1 0.7 0.4
v 0.4 0.7 0.4
v -0.3 0.7 0.3
v -0.1 0.7 0.3
v 0.1 0.7 0.3
v 0.3 0.7 0.3
v -0.3 0.7 -0.3
v -0.1 0.7 -0.3
v 0.1 0.7 -0.3
v 0.3 0.7 -0.3
v -0.4 0.7 -0.4
v -0.1 0.7 -0.4
v 0.1 0.7 -0.4
v 0.4 0.7 -0.4
v -0.1 0.9 0.5
v 0.1 0.9 0.5
v -0.3 0.9 0.3
v -0.1 0.9 0.3
v 0.1 0.9 0.3
v 0.3 0.9 0.3
v -0.2 0.9 0.2
v 0.2 0.9 0.2
v -0.2 0.9 -0.2
v 0.2 0.9 -0.2
v -0.3 0.9 -0.3
v -0.1 0.9 -0.3
v 0.1 0.9 -0.3
v 0.3 0.9 -0.3
v -0.1 0.9 -0.5
v 0.1 0.9 -0.5
v -0.2 1.1 0.2
v 0.2 1.1 0.2
v -0.1 1.1 0.1
v 0.1 1.1 0.1
v -0.1 1.1 -0.1
v 0.1 1.1 -0.1
v -0.2 1.1 -0.2
v 0.2 1.1 -0.2
v -0.1 1.2 0.1
v 0.1 1.2 0.1
v -0.1 1.2 -0.1
v 0.1 1.2 -0.1

# faces
f 3/3/1 2/3/1 1/3/1
f 4/3/1 2/3/1 3/3/1
f 9/3/1 6/3/1 5/3/1
f 10/3/1 6/3/1 9/3/1
f 11/3/1 8/3/1 7/3/1
f 12/3/1 8/3/1 11/3/1
f 13/3/1 11/3/1 10/3/1
f 14/3/1 11/3/1 13/3/1
f 17/2/1 16/2/1 15/2/1
f 18/2/1 16/2/1 17/2/1
f 21/2/1 20/2/1 19/2/1
f 22/2/1 20/2/1 21/2/1
f 25/2/1 24/2/1 23/2/1
f 26/2/1 24/2/1 25/2/1
f 29/1/1 28/1/1 27/1/1
f 30/1/1 28/1/1 29/1/1
f 37/2/1 32/2/1 31/2/1
f 37/2/1 33/2/1 32/2/1
f 38/2/1 33/2/1 37/2/1
f 39/2/1 36/2/1 35/2/1
f 39/2/1 35/2/1 34/2/1
f 40/2/1 36/2/1 39/2/1
f 43/1/1 42/1/1 41/1/1
f 44/1/1 42/1/1 43/1/1
f 45/2/2 46/2/2 51/2/2
f 46/2/2 47/2/2 51/2/2
f 51/2/2 47/2/2 52/2/2
f 49/2/2 50/2/2 53/2/2
f 48/2/2 49/2/2 53/2/2
f 53/2/2 50/2/2 54/2/2
f 55/1/2 56/1/2 57/1/2
f 57/1/2 56/1/2 58/1/2
f 59/1/2 60/1/2 61/1/2
f 61/1/2 60/1/2 62/1/2
f 63/2/2 64/2/2 65/2/2
f 65/2/2 64/2/2 66/2/2
f 67/2/2 68/2/2 69/2/2
f 69/2/2 68/2/2 70/2/2
f 71/2/2 72/2/2 73/2/2
f 73/2/2 72/2/2 74/2/2
f 75/3/2 76/3/2 79/3/2
f 79/3/2 76/3/2 80/3/2
f 77/3/2 78/3/2 81/3/2
f 81/3/2 78/3/2 82/3/2
f 80/3/2 81/3/2 83/3/2
f 83/3/2 81/3/2 84/3/2
f 85/3/2 86/3/2 87/3/2
f 87/3/2 86/3/2 88/3/2
f 91/3/3 90/3/3 89/3/3
f 92/3/3 90/3/3 91/3/3
f 95/3/3 94/3/3 93/3/3
f 96/3/3 94/3/3 95/3/3
f 99/3/3 97/3/3 96/3/3
f 100/3/3 97/3/3 99/3/3
f 101/3/3 99/3/3 98/3/3
f 102/3/3 99/3/3 101/3/3
f 107/2/3 106/2/3 105/2/3
f 108/2/3 106/2/3 107/2/3
f 109/2/3 104/2/3 103/2/3
f 110/2/3 104/2/3 109/2/3
f 113/2/3 112/2/3 111/2/3
f 114/2/3 113/2/3 111/2/3
f 115/2/3 114/2/3 111/2/3
f 116/2/3 114/2/3 115/2/3
f 119/2/3 118/2/3 117/2/3
f 120/2/3 118/2/3 119/2/3
f 123/2/3 122/2/3 121/2/3
f 124/2/3 122/2/3 123/2/3
f 127/1/3 126/1/3 125/1/3
f 128/1/3 126/1/3 127/1/3
f 131/1/3 130/1/3 129/1/3
f 132/1/3 130/1/3 131/1/3
f 133/1/4 134/1/4 135/1/4
f 135/1/4 134/1/4 136/1/4
f 137/1/4 138/1/4 139/1/4
f 139/1/4 138/1/4 140/1/4
f 141/2/4 142/2/4 143/2/4
f 143/2/4 142/2/4 144/2/4
f 145/2/4 146/2/4 147/2/4
f 147/2/4 146/2/4 148/2/4
f 149/2/4 150/2/4 151/2/4
f 149/2/4 151/2/4 152/2/4
f 149/2/4 152/2/4 153/2/4
f 153/2/4 152/2/4 154/2/4
f 157/2/4 158/2/4 159/2/4
f 159/2/4 158/2/4 160/2/4
f 155/2/4 156/2/4 161/2/4
f 161/2/4 156/2/4 162/2/4
f 163/3/4 164/3/4 165/3/4
f 165/3/4 164/3/4 166/3/4
f 166/3/4 167/3/4 169/3/4
f 169/3/4 167/3/4 170/3/4
f 168/3/4 169/3/4 171/3/4
f 171/3/4 169/3/4 172/3/4
f 173/3/4 174/3/4 175/3/4
f 175/3/4 174/3/4 176/3/4
f 180/3/5 178/3/5 177/3/5
f 181/3/5 178/3/5 180/3/5
f 183/3/5 180/3/5 179/3/5
f 183/3/5 182/3/5 181/3/5
f 183/3/5 181/3/5 180/3/5
f 184/3/5 182/3/5 183/3/5
f 185/3/5 182/3/5 184/3/5
f 186/3/5 182/3/5 185/3/5
f 187/3/5 185/3/5 184/3/5
f 188/3/5 185/3/5 187/3/5
f 191/2/5 190/2/5 189/2/5
f 192/2/5 190/2/5 191/2/5
f 195/2/5 194/2/5 193/2/5
f 196/2/5 194/2/5 195/2/5
f 197/3/6 198/3/6 200/3/6
f 200/3/6 198/3/6 201/3/6
f 199/3/6 200/3/6 203/3/6
f 203/3/6 200/3/6 204/3/6
f 201/3/6 202/3/6 205/3/6
f 205/3/6 202/3/6 206/3/6
f 204/3/6 205/3/6 207/3/6
f 207/3/6 205/3/6 208/3/6
f 209/3/6 210/3/6 211/3/6
f 211/3/6 210/3/6 212/3/6
f 209/3/6 211/3/6 213/3/6
f 212/3/6 210/3/6 214/3/6
f 209/3/6 213/3/6 215/3/6
f 213/3/6 214/3/6 215/3/6
f 214/3/6 210/3/6 216/3/6
f 215/3/6 214/3/6 216/3/6
f 217/2/6 218/2/6 219/2/6
f 219/2/6 218/2/6 220/2/6
f 217/2/6 219/2/6 221/2/6
f 220/2/6 218/2/6 222/2/6
f 217/2/6 221/2/6 223/2/6
f 221/2/6 222/2/6 223/2/6
f 222/2/6 218/2/6 224/2/6
f 223/2/6 222/2/6 224/2/6
f 225/2/6 226/2/6 229/2/6
f 229/2/6 226/2/6 230/2/6
f 227/2/6 228/2/6 231/2/6
f 231/2/6 228/2/6 232/2/6
f 225/2/6 229/2/6 233/2/6
f 232/2/6 228/2/6 236/2/6
f 233/2/6 234/2/6 237/2/6
f 225/2/6 233/2/6 237/2/6
f 237/2/6 234/2/6 238/2/6
f 235/2/6 236/2/6 239/2/6
f 236/2/6 228/2/6 240/2/6
f 239/2/6 236/2/6 240/2/6
f 241/2/6 242/2/6 244/2/6
f 244/2/6 242/2/6 245/2/6
f 243/2/6 244/2/6 247/2/6
f 245/2/6 246/2/6 247/2/6
f 244/2/6 245/2/6 247/2/6
f 247/2/6 246/2/6 248/2/6
f 243/2/6 247/2/6 249/2/6
f 248/2/6 246/2/6 250/2/6
f 243/2/6 249/2/6 251/2/6
f 249/2/6 250/2/6 251/2/6
f 251/2/6 250/2/6 252/2/6
f 252/2/6 250/2/6 253/2/6
f 250/2/6 246/2/6 254/2/6
f 253/2/6 250/2/6 254/2/6
f 252/2/6 253/2/6 255/2/6
f 255/2/6 253/2/6 256/2/6
f 257/1/6 258/1/6 259/1/6
f 259/1/6 258/1/6 260/1/6
f 257/1/6 259/1/6 261/1/6
f 260/1/6 258/1/6 262/1/6
f 257/1/6 261/1/6 263/1/6
f 261/1/6 262/1/6 263/1/6
f 262/1/6 258/1/6 264/1/6
f 263/1/6 262/1/6 264/1/6
f 265/1/6 266/1/6 267/1/6
f 267/1/6 266/1/6 268/1/6
