# MagicaVoxel @ Ephtracy

# group
o 9

# material
mtllib 11.mtl
usemtl palette

# normals
vn -1 0 0
vn 1 0 0
vn 0 0 1
vn 0 0 -1
vn 0 -1 0
vn 0 1 0

# texcoords
vt 0.244141 0.5
vt 0.541016 0.5
vt 0.560547 0.5

# verts
v -0.8 0 0.8
v -0.8 0 -0.8
v -0.8 0.1 0.8
v -0.8 0.1 -0.8
v -0.8 0.2 0.8
v -0.8 0.2 -0.8
v -0.5 0.2 0.2
v -0.5 0.2 0.1
v -0.5 0.2 -0.1
v -0.5 0.2 -0.2
v -0.5 0.8 0.2
v -0.5 0.8 0.1
v -0.5 0.8 -0.1
v -0.5 0.8 -0.2
v -0.4 0.2 0.5
v -0.4 0.2 0.4
v -0.4 0.2 -0.4
v -0.4 0.2 -0.5
v -0.4 0.3 0.5
v -0.4 0.3 0.4
v -0.4 0.3 0.3
v -0.4 0.3 -0.3
v -0.4 0.3 -0.4
v -0.4 0.3 -0.5
v -0.4 0.4 0.4
v -0.4 0.4 0.3
v -0.4 0.4 0.2
v -0.4 0.4 -0.2
v -0.4 0.4 -0.3
v -0.4 0.4 -0.4
v -0.4 0.5 0.3
v -0.4 0.5 0.2
v -0.4 0.5 -0.2
v -0.4 0.5 -0.3
v -0.4 0.6 0.1
v -0.4 0.6 -0.1
v -0.4 0.7 0.1
v -0.4 0.7 -0.1
v 0.4 0.2 0.2
v 0.4 0.2 0.1
v 0.4 0.2 -0.1
v 0.4 0.2 -0.2
v 0.4 0.4 0.2
v 0.4 0.4 -0.2
v 0.4 0.5 0.2
v 0.4 0.5 0.1
v 0.4 0.5 -0.1
v 0.4 0.5 -0.2
v 0.4 0.6 0.2
v 0.4 0.6 0.1
v 0.4 0.6 -0.1
v 0.4 0.6 -0.2
v 0.4 0.7 0.1
v 0.4 0.7 -0.1
v 0.4 0.8 0.2
v 0.4 0.8 0.1
v 0.4 0.8 -0.1
v 0.4 0.8 -0.2
v -0.4 0.2 0.2
v -0.4 0.2 0.1
v -0.4 0.2 -0.1
v -0.4 0.2 -0.2
v -0.4 0.4 0.2
v -0.4 0.4 -0.2
v -0.4 0.5 0.2
v -0.4 0.5 0.1
v -0.4 0.5 -0.1
v -0.4 0.5 -0.2
v -0.4 0.6 0.2
v -0.4 0.6 0.1
v -0.4 0.6 -0.1
v -0.4 0.6 -0.2
v -0.4 0.7 0.1
v -0.4 0.7 -0.1
v -0.4 0.8 0.2
v -0.4 0.8 0.1
v -0.4 0.8 -0.1
v -0.4 0.8 -0.2
v 0.4 0.2 0.5
v 0.4 0.2 0.4
v 0.4 0.2 -0.4
v 0.4 0.2 -0.5
v 0.4 0.3 0.5
v 0.4 0.3 0.4
v 0.4 0.3 0.3
v 0.4 0.3 -0.3
v 0.4 0.3 -0.4
v 0.4 0.3 -0.5
v 0.4 0.4 0.4
v 0.4 0.4 0.3
v 0.4 0.4 0.2
v 0.4 0.4 -0.2
v 0.4 0.4 -0.3
v 0.4 0.4 -0.4
v 0.4 0.5 0.3
v 0.4 0.5 0.2
v 0.4 0.5 -0.2
v 0.4 0.5 -0.3
v 0.4 0.6 0.1
v 0.4 0.6 -0.1
v 0.4 0.7 0.1
v 0.4 0.7 -0.1
v 0.5 0.2 0.2
v 0.5 0.2 0.1
v 0.5 0.2 -0.1
v 0.5 0.2 -0.2
v 0.5 0.8 0.2
v 0.5 0.8 0.1
v 0.5 0.8 -0.1
v 0.5 0.8 -0.2
v 0.8 0 0.8
v 0.8 0 -0.8
v 0.8 0.1 0.8
v 0.8 0.1 -0.8
v 0.8 0.2 0.8
v 0.8 0.2 -0.8
v -0.8 0 0.8
v -0.8 0.1 0.8
v -0.8 0.2 0.8
v 0.8 0 0.8
v 0.8 0.1 0.8
v 0.8 0.2 0.8
v -0.4 0.2 0.5
v -0.4 0.3 0.5
v -0.3 0.2 0.5
v -0.3 0.3 0.5
v -0.1 0.2 0.5
v -0.1 0.3 0.5
v 0.1 0.2 0.5
v 0.1 0.3 0.5
v 0.3 0.2 0.5
v 0.3 0.3 0.5
v 0.4 0.2 0.5
v 0.4 0.3 0.5
v -0.4 0.3 0.4
v -0.4 0.4 0.4
v -0.3 0.3 0.4
v -0.3 0.4 0.4
v -0.1 0.3 0.4
v -0.1 0.4 0.4
v 0.1 0.3 0.4
v 0.1 0.4 0.4
v 0.3 0.3 0.4
v 0.3 0.4 0.4
v 0.4 0.3 0.4
v 0.4 0.4 0.4
v -0.4 0.4 0.3
v -0.4 0.5 0.3
v -0.3 0.4 0.3
v -0.3 0.5 0.3
v -0.1 0.4 0.3
v -0.1 0.5 0.3
v 0.1 0.4 0.3
v 0.1 0.5 0.3
v 0.3 0.4 0.3
v 0.3 0.5 0.3
v 0.4 0.4 0.3
v 0.4 0.5 0.3
v -0.5 0.2 0.2
v -0.5 0.8 0.2
v -0.4 0.2 0.2
v -0.4 0.4 0.2
v -0.4 0.5 0.2
v -0.4 0.6 0.2
v -0.4 0.8 0.2
v -0.3 0.5 0.2
v -0.3 0.6 0.2
v -0.1 0.5 0.2
v -0.1 0.6 0.2
v 0.1 0.5 0.2
v 0.1 0.6 0.2
v 0.3 0.5 0.2
v 0.3 0.6 0.2
v 0.4 0.2 0.2
v 0.4 0.4 0.2
v 0.4 0.5 0.2
v 0.4 0.6 0.2
v 0.4 0.8 0.2
v 0.5 0.2 0.2
v 0.5 0.8 0.2
v -0.4 0.6 0.1
v -0.4 0.7 0.1
v -0.3 0.6 0.1
v -0.1 0.6 0.1
v 0.1 0.6 0.1
v 0.3 0.6 0.1
v 0.4 0.6 0.1
v 0.4 0.7 0.1
v -0.5 0.2 -0.1
v -0.5 0.8 -0.1
v -0.4 0.2 -0.1
v -0.4 0.5 -0.1
v -0.4 0.6 -0.1
v -0.4 0.7 -0.1
v -0.4 0.8 -0.1
v -0.3 0.5 -0.1
v -0.3 0.6 -0.1
v -0.1 0.5 -0.1
v -0.1 0.6 -0.1
v 0.1 0.5 -0.1
v 0.1 0.6 -0.1
v 0.3 0.5 -0.1
v 0.3 0.6 -0.1
v 0.4 0.2 -0.1
v 0.4 0.5 -0.1
v 0.4 0.6 -0.1
v 0.4 0.7 -0.1
v 0.4 0.8 -0.1
v 0.5 0.2 -0.1
v 0.5 0.8 -0.1
v -0.4 0.4 -0.2
v -0.4 0.5 -0.2
v -0.3 0.4 -0.2
v -0.3 0.5 -0.2
v -0.1 0.4 -0.2
v -0.1 0.5 -0.2
v 0.1 0.4 -0.2
v 0.1 0.5 -0.2
v 0.3 0.4 -0.2
v 0.3 0.5 -0.2
v 0.4 0.4 -0.2
v 0.4 0.5 -0.2
v -0.4 0.3 -0.3
v -0.4 0.4 -0.3
v -0.3 0.3 -0.3
v -0.3 0.4 -0.3
v -0.1 0.3 -0.3
v -0.1 0.4 -0.3
v 0.1 0.3 -0.3
v 0.1 0.4 -0.3
v 0.3 0.3 -0.3
v 0.3 0.4 -0.3
v 0.4 0.3 -0.3
v 0.4 0.4 -0.3
v -0.4 0.2 -0.4
v -0.4 0.3 -0.4
v -0.3 0.2 -0.4
v -0.3 0.3 -0.4
v -0.1 0.2 -0.4
v -0.1 0.3 -0.4
v 0.1 0.2 -0.4
v 0.1 0.3 -0.4
v 0.3 0.2 -0.4
v 0.3 0.3 -0.4
v 0.4 0.2 -0.4
v 0.4 0.3 -0.4
v -0.4 0.2 0.4
v -0.4 0.3 0.4
v -0.3 0.2 0.4
v -0.3 0.3 0.4
v -0.1 0.2 0.4
v -0.1 0.3 0.4
v 0.1 0.2 0.4
v 0.1 0.3 0.4
v 0.3 0.2 0.4
v 0.3 0.3 0.4
v 0.4 0.2 0.4
v 0.4 0.3 0.4
v -0.4 0.3 0.3
v -0.4 0.4 0.3
v -0.3 0.3 0.3
v -0.3 0.4 0.3
v -0.1 0.3 0.3
v -0.1 0.4 0.3
v 0.1 0.3 0.3
v 0.1 0.4 0.3
v 0.3 0.3 0.3
v 0.3 0.4 0.3
v 0.4 0.3 0.3
v 0.4 0.4 0.3
v -0.4 0.4 0.2
v -0.4 0.5 0.2
v -0.3 0.4 0.2
v -0.3 0.5 0.2
v -0.1 0.4 0.2
v -0.1 0.5 0.2
v 0.1 0.4 0.2
v 0.1 0.5 0.2
v 0.3 0.4 0.2
v 0.3 0.5 0.2
v 0.4 0.4 0.2
v 0.4 0.5 0.2
v -0.5 0.2 0.1
v -0.5 0.8 0.1
v -0.4 0.2 0.1
v -0.4 0.5 0.1
v -0.4 0.6 0.1
v -0.4 0.7 0.1
v -0.4 0.8 0.1
v -0.3 0.5 0.1
v -0.3 0.6 0.1
v -0.1 0.5 0.1
v -0.1 0.6 0.1
v 0.1 0.5 0.1
v 0.1 0.6 0.1
v 0.3 0.5 0.1
v 0.3 0.6 0.1
v 0.4 0.2 0.1
v 0.4 0.5 0.1
v 0.4 0.6 0.1
v 0.4 0.7 0.1
v 0.4 0.8 0.1
v 0.5 0.2 0.1
v 0.5 0.8 0.1
v -0.4 0.6 -0.1
v -0.4 0.7 -0.1
v -0.3 0.6 -0.1
v -0.1 0.6 -0.1
v 0.1 0.6 -0.1
v 0.3 0.6 -0.1
v 0.4 0.6 -0.1
v 0.4 0.7 -0.1
v -0.5 0.2 -0.2
v -0.5 0.8 -0.2
v -0.4 0.2 -0.2
v -0.4 0.4 -0.2
v -0.4 0.5 -0.2
v -0.4 0.6 -0.2
v -0.4 0.8 -0.2
v -0.3 0.5 -0.2
v -0.3 0.6 -0.2
v -0.1 0.5 -0.2
v -0.1 0.6 -0.2
v 0.1 0.5 -0.2
v 0.1 0.6 -0.2
v 0.3 0.5 -0.2
v 0.3 0.6 -0.2
v 0.4 0.2 -0.2
v 0.4 0.4 -0.2
v 0.4 0.5 -0.2
v 0.4 0.6 -0.2
v 0.4 0.8 -0.2
v 0.5 0.2 -0.2
v 0.5 0.8 -0.2
v -0.4 0.4 -0.3
v -0.4 0.5 -0.3
v -0.3 0.4 -0.3
v -0.3 0.5 -0.3
v -0.1 0.4 -0.3
v -0.1 0.5 -0.3
v 0.1 0.4 -0.3
v 0.1 0.5 -0.3
v 0.3 0.4 -0.3
v 0.3 0.5 -0.3
v 0.4 0.4 -0.3
v 0.4 0.5 -0.3
v -0.4 0.3 -0.4
v -0.4 0.4 -0.4
v -0.3 0.3 -0.4
v -0.3 0.4 -0.4
v -0.1 0.3 -0.4
v -0.1 0.4 -0.4
v 0.1 0.3 -0.4
v 0.1 0.4 -0.4
v 0.3 0.3 -0.4
v 0.3 0.4 -0.4
v 0.4 0.3 -0.4
v 0.4 0.4 -0.4
v -0.4 0.2 -0.5
v -0.4 0.3 -0.5
v -0.3 0.2 -0.5
v -0.3 0.3 -0.5
v -0.1 0.2 -0.5
v -0.1 0.3 -0.5
v 0.1 0.2 -0.5
v 0.1 0.3 -0.5
v 0.3 0.2 -0.5
v 0.3 0.3 -0.5
v 0.4 0.2 -0.5
v 0.4 0.3 -0.5
v -0.8 0 -0.8
v -0.8 0.1 -0.8
v -0.8 0.2 -0.8
v 0.8 0 -0.8
v 0.8 0.1 -0.8
v 0.8 0.2 -0.8
v -0.8 0 0.8
v 0.8 0 0.8
v -0.8 0 -0.8
v 0.8 0 -0.8
v -0.4 0.3 0.4
v -0.3 0.3 0.4
v -0.1 0.3 0.4
v 0.1 0.3 0.4
v 0.3 0.3 0.4
v 0.4 0.3 0.4
v -0.4 0.3 0.3
v -0.3 0.3 0.3
v -0.1 0.3 0.3
v 0.1 0.3 0.3
v 0.3 0.3 0.3
v 0.4 0.3 0.3
v -0.4 0.3 -0.3
v -0.3 0.3 -0.3
v -0.1 0.3 -0.3
v 0.1 0.3 -0.3
v 0.3 0.3 -0.3
v 0.4 0.3 -0.3
v -0.4 0.3 -0.4
v -0.3 0.3 -0.4
v -0.1 0.3 -0.4
v 0.1 0.3 -0.4
v 0.3 0.3 -0.4
v 0.4 0.3 -0.4
v -0.4 0.4 0.3
v -0.3 0.4 0.3
v -0.1 0.4 0.3
v 0.1 0.4 0.3
v 0.3 0.4 0.3
v 0.4 0.4 0.3
v -0.4 0.4 0.2
v -0.3 0.4 0.2
v -0.1 0.4 0.2
v 0.1 0.4 0.2
v 0.3 0.4 0.2
v 0.4 0.4 0.2
v -0.4 0.4 -0.2
v -0.3 0.4 -0.2
v -0.1 0.4 -0.2
v 0.1 0.4 -0.2
v 0.3 0.4 -0.2
v 0.4 0.4 -0.2
v -0.4 0.4 -0.3
v -0.3 0.4 -0.3
v -0.1 0.4 -0.3
v 0.1 0.4 -0.3
v 0.3 0.4 -0.3
v 0.4 0.4 -0.3
v -0.4 0.5 0.2
v -0.3 0.5 0.2
v -0.1 0.5 0.2
v 0.1 0.5 0.2
v 0.3 0.5 0.2
v 0.4 0.5 0.2
v -0.4 0.5 0.1
v -0.3 0.5 0.1
v -0.1 0.5 0.1
v 0.1 0.5 0.1
v 0.3 0.5 0.1
v 0.4 0.5 0.1
v -0.4 0.5 -0.1
v -0.3 0.5 -0.1
v -0.1 0.5 -0.1
v 0.1 0.5 -0.1
v 0.3 0.5 -0.1
v 0.4 0.5 -0.1
v -0.4 0.5 -0.2
v -0.3 0.5 -0.2
v -0.1 0.5 -0.2
v 0.1 0.5 -0.2
v 0.3 0.5 -0.2
v 0.4 0.5 -0.2
v -0.4 0.6 0.1
v -0.3 0.6 0.1
v -0.1 0.6 0.1
v 0.1 0.6 0.1
v 0.3 0.6 0.1
v 0.4 0.6 0.1
v -0.4 0.6 -0.1
v -0.3 0.6 -0.1
v -0.1 0.6 -0.1
v 0.1 0.6 -0.1
v 0.3 0.6 -0.1
v 0.4 0.6 -0.1
v -0.8 0.2 0.8
v 0.8 0.2 0.8
v -0.4 0.2 0.7
v 0.4 0.2 0.7
v -0.5 0.2 0.6
v -0.4 0.2 0.6
v 0.4 0.2 0.6
v 0.5 0.2 0.6
v -0.6 0.2 0.5
v -0.5 0.2 0.5
v -0.4 0.2 0.5
v -0.3 0.2 0.5
v -0.1 0.2 0.5
v 0.1 0.2 0.5
v 0.3 0.2 0.5
v 0.4 0.2 0.5
v 0.5 0.2 0.5
v 0.6 0.2 0.5
v -0.4 0.2 0.4
v -0.3 0.2 0.4
v -0.1 0.2 0.4
v 0.1 0.2 0.4
v 0.3 0.2 0.4
v 0.4 0.2 0.4
v -0.7 0.2 0.3
v -0.6 0.2 0.3
v 0.6 0.2 0.3
v 0.7 0.2 0.3
v -0.5 0.2 0.2
v -0.4 0.2 0.2
v 0.4 0.2 0.2
v 0.5 0.2 0.2
v -0.5 0.2 0.1
v -0.4 0.2 0.1
v 0.4 0.2 0.1
v 0.5 0.2 0.1
v -0.5 0.2 -0.1
v -0.4 0.2 -0.1
v 0.4 0.2 -0.1
v 0.5 0.2 -0.1
v -0.5 0.2 -0.2
v -0.4 0.2 -0.2
v 0.4 0.2 -0.2
v 0.5 0.2 -0.2
v -0.7 0.2 -0.3
v -0.6 0.2 -0.3
v 0.6 0.2 -0.3
v 0.7 0.2 -0.3
v -0.4 0.2 -0.4
v -0.3 0.2 -0.4
v -0.1 0.2 -0.4
v 0.1 0.2 -0.4
v 0.3 0.2 -0.4
v 0.4 0.2 -0.4
v -0.6 0.2 -0.5
v -0.5 0.2 -0.5
v -0.4 0.2 -0.5
v -0.3 0.2 -0.5
v -0.1 0.2 -0.5
v 0.1 0.2 -0.5
v 0.3 0.2 -0.5
v 0.4 0.2 -0.5
v 0.5 0.2 -0.5
v 0.6 0.2 -0.5
v -0.5 0.2 -0.6
v -0.4 0.2 -0.6
v 0.4 0.2 -0.6
v 0.5 0.2 -0.6
v -0.4 0.2 -0.7
v 0.4 0.2 -0.7
v -0.8 0.2 -0.8
v 0.8 0.2 -0.8
v -0.4 0.3 0.5
v -0.3 0.3 0.5
v -0.1 0.3 0.5
v 0.1 0.3 0.5
v 0.3 0.3 0.5
v 0.4 0.3 0.5
v -0.4 0.3 0.4
v -0.3 0.3 0.4
v -0.1 0.3 0.4
v 0.1 0.3 0.4
v 0.3 0.3 0.4
v 0.4 0.3 0.4
v -0.4 0.3 -0.4
v -0.3 0.3 -0.4
v -0.1 0.3 -0.4
v 0.1 0.3 -0.4
v 0.3 0.3 -0.4
v 0.4 0.3 -0.4
v -0.4 0.3 -0.5
v -0.3 0.3 -0.5
v -0.1 0.3 -0.5
v 0.1 0.3 -0.5
v 0.3 0.3 -0.5
v 0.4 0.3 -0.5
v -0.4 0.4 0.4
v -0.3 0.4 0.4
v -0.1 0.4 0.4
v 0.1 0.4 0.4
v 0.3 0.4 0.4
v 0.4 0.4 0.4
v -0.4 0.4 0.3
v -0.3 0.4 0.3
v -0.1 0.4 0.3
v 0.1 0.4 0.3
v 0.3 0.4 0.3
v 0.4 0.4 0.3
v -0.4 0.4 -0.3
v -0.3 0.4 -0.3
v -0.1 0.4 -0.3
v 0.1 0.4 -0.3
v 0.3 0.4 -0.3
v 0.4 0.4 -0.3
v -0.4 0.4 -0.4
v -0.3 0.4 -0.4
v -0.1 0.4 -0.4
v 0.1 0.4 -0.4
v 0.3 0.4 -0.4
v 0.4 0.4 -0.4
v -0.4 0.5 0.3
v -0.3 0.5 0.3
v -0.1 0.5 0.3
v 0.1 0.5 0.3
v 0.3 0.5 0.3
v 0.4 0.5 0.3
v -0.4 0.5 0.2
v -0.3 0.5 0.2
v -0.1 0.5 0.2
v 0.1 0.5 0.2
v 0.3 0.5 0.2
v 0.4 0.5 0.2
v -0.4 0.5 -0.2
v -0.3 0.5 -0.2
v -0.1 0.5 -0.2
v 0.1 0.5 -0.2
v 0.3 0.5 -0.2
v 0.4 0.5 -0.2
v -0.4 0.5 -0.3
v -0.3 0.5 -0.3
v -0.1 0.5 -0.3
v 0.1 0.5 -0.3
v 0.3 0.5 -0.3
v 0.4 0.5 -0.3
v -0.4 0.6 0.2
v -0.3 0.6 0.2
v -0.1 0.6 0.2
v 0.1 0.6 0.2
v 0.3 0.6 0.2
v 0.4 0.6 0.2
v -0.4 0.6 0.1
v -0.3 0.6 0.1
v -0.1 0.6 0.1
v 0.1 0.6 0.1
v 0.3 0.6 0.1
v 0.4 0.6 0.1
v -0.4 0.6 -0.1
v -0.3 0.6 -0.1
v -0.1 0.6 -0.1
v 0.1 0.6 -0.1
v 0.3 0.6 -0.1
v 0.4 0.6 -0.1
v -0.4 0.6 -0.2
v -0.3 0.6 -0.2
v -0.1 0.6 -0.2
v 0.1 0.6 -0.2
v 0.3 0.6 -0.2
v 0.4 0.6 -0.2
v -0.4 0.7 0.1
v 0.4 0.7 0.1
v -0.4 0.7 -0.1
v 0.4 0.7 -0.1
v -0.5 0.8 0.2
v -0.4 0.8 0.2
v 0.4 0.8 0.2
v 0.5 0.8 0.2
v -0.5 0.8 0.1
v -0.4 0.8 0.1
v 0.4 0.8 0.1
v 0.5 0.8 0.1
v -0.5 0.8 -0.1
v -0.4 0.8 -0.1
v 0.4 0.8 -0.1
v 0.5 0.8 -0.1
v -0.5 0.8 -0.2
v -0.4 0.8 -0.2
v 0.4 0.8 -0.2
v 0.5 0.8 -0.2

# faces
f 3/1/1 2/1/1 1/1/1
f 4/1/1 2/1/1 3/1/1
f 5/3/1 4/3/1 3/3/1
f 6/3/1 4/3/1 5/3/1
f 11/1/1 8/1/1 7/1/1
f 12/1/1 8/1/1 11/1/1
f 13/1/1 10/1/1 9/1/1
f 14/1/1 10/1/1 13/1/1
f 19/1/1 16/1/1 15/1/1
f 20/1/1 16/1/1 19/1/1
f 23/1/1 18/1/1 17/1/1
f 24/1/1 18/1/1 23/1/1
f 25/1/1 21/1/1 20/1/1
f 26/1/1 21/1/1 25/1/1
f 29/1/1 23/1/1 22/1/1
f 30/1/1 23/1/1 29/1/1
f 31/1/1 27/1/1 26/1/1
f 32/1/1 27/1/1 31/1/1
f 33/1/1 29/1/1 28/1/1
f 34/1/1 29/1/1 33/1/1
f 37/1/1 36/1/1 35/1/1
f 38/1/1 36/1/1 37/1/1
f 43/1/1 40/1/1 39/1/1
f 44/1/1 42/1/1 41/1/1
f 45/1/1 40/1/1 43/1/1
f 46/1/1 40/1/1 45/1/1
f 47/1/1 44/1/1 41/1/1
f 48/1/1 44/1/1 47/1/1
f 53/1/1 50/1/1 49/1/1
f 54/1/1 52/1/1 51/1/1
f 55/1/1 53/1/1 49/1/1
f 56/1/1 53/1/1 55/1/1
f 57/1/1 52/1/1 54/1/1
f 58/1/1 52/1/1 57/1/1
f 59/1/2 60/1/2 63/1/2
f 61/1/2 62/1/2 64/1/2
f 63/1/2 60/1/2 65/1/2
f 65/1/2 60/1/2 66/1/2
f 61/1/2 64/1/2 67/1/2
f 67/1/2 64/1/2 68/1/2
f 69/1/2 70/1/2 73/1/2
f 71/1/2 72/1/2 74/1/2
f 69/1/2 73/1/2 75/1/2
f 75/1/2 73/1/2 76/1/2
f 74/1/2 72/1/2 77/1/2
f 77/1/2 72/1/2 78/1/2
f 79/1/2 80/1/2 83/1/2
f 83/1/2 80/1/2 84/1/2
f 81/1/2 82/1/2 87/1/2
f 87/1/2 82/1/2 88/1/2
f 84/1/2 85/1/2 89/1/2
f 89/1/2 85/1/2 90/1/2
f 86/1/2 87/1/2 93/1/2
f 93/1/2 87/1/2 94/1/2
f 90/1/2 91/1/2 95/1/2
f 95/1/2 91/1/2 96/1/2
f 92/1/2 93/1/2 97/1/2
f 97/1/2 93/1/2 98/1/2
f 99/1/2 100/1/2 101/1/2
f 101/1/2 100/1/2 102/1/2
f 103/1/2 104/1/2 107/1/2
f 107/1/2 104/1/2 108/1/2
f 105/1/2 106/1/2 109/1/2
f 109/1/2 106/1/2 110/1/2
f 111/1/2 112/1/2 113/1/2
f 113/1/2 112/1/2 114/1/2
f 113/3/2 114/3/2 115/3/2
f 115/3/2 114/3/2 116/3/2
f 120/1/3 118/1/3 117/1/3
f 121/3/3 119/3/3 118/3/3
f 121/1/3 118/1/3 120/1/3
f 122/3/3 119/3/3 121/3/3
f 125/1/3 124/1/3 123/1/3
f 126/1/3 124/1/3 125/1/3
f 127/2/3 126/2/3 125/2/3
f 128/2/3 126/2/3 127/2/3
f 129/1/3 128/1/3 127/1/3
f 130/1/3 128/1/3 129/1/3
f 131/2/3 130/2/3 129/2/3
f 132/2/3 130/2/3 131/2/3
f 133/1/3 132/1/3 131/1/3
f 134/1/3 132/1/3 133/1/3
f 137/1/3 136/1/3 135/1/3
f 138/1/3 136/1/3 137/1/3
f 139/2/3 138/2/3 137/2/3
f 140/2/3 138/2/3 139/2/3
f 141/1/3 140/1/3 139/1/3
f 142/1/3 140/1/3 141/1/3
f 143/2/3 142/2/3 141/2/3
f 144/2/3 142/2/3 143/2/3
f 145/1/3 144/1/3 143/1/3
f 146/1/3 144/1/3 145/1/3
f 149/1/3 148/1/3 147/1/3
f 150/1/3 148/1/3 149/1/3
f 151/2/3 150/2/3 149/2/3
f 152/2/3 150/2/3 151/2/3
f 153/1/3 152/1/3 151/1/3
f 154/1/3 152/1/3 153/1/3
f 155/2/3 154/2/3 153/2/3
f 156/2/3 154/2/3 155/2/3
f 157/1/3 156/1/3 155/1/3
f 158/1/3 156/1/3 157/1/3
f 161/1/3 160/1/3 159/1/3
f 162/1/3 160/1/3 161/1/3
f 163/1/3 160/1/3 162/1/3
f 164/1/3 160/1/3 163/1/3
f 165/1/3 160/1/3 164/1/3
f 166/1/3 164/1/3 163/1/3
f 167/1/3 164/1/3 166/1/3
f 168/2/3 167/2/3 166/2/3
f 169/2/3 167/2/3 168/2/3
f 170/1/3 169/1/3 168/1/3
f 171/1/3 169/1/3 170/1/3
f 172/2/3 171/2/3 170/2/3
f 173/2/3 171/2/3 172/2/3
f 176/1/3 173/1/3 172/1/3
f 177/1/3 173/1/3 176/1/3
f 179/1/3 177/1/3 176/1/3
f 179/1/3 178/1/3 177/1/3
f 179/1/3 175/1/3 174/1/3
f 179/1/3 176/1/3 175/1/3
f 180/1/3 178/1/3 179/1/3
f 183/1/3 182/1/3 181/1/3
f 184/1/3 182/1/3 183/1/3
f 185/1/3 182/1/3 184/1/3
f 186/1/3 182/1/3 185/1/3
f 187/1/3 182/1/3 186/1/3
f 188/1/3 182/1/3 187/1/3
f 191/1/3 190/1/3 189/1/3
f 192/1/3 190/1/3 191/1/3
f 193/1/3 190/1/3 192/1/3
f 194/1/3 190/1/3 193/1/3
f 195/1/3 190/1/3 194/1/3
f 196/1/3 193/1/3 192/1/3
f 197/1/3 193/1/3 196/1/3
f 198/2/3 197/2/3 196/2/3
f 199/2/3 197/2/3 198/2/3
f 200/1/3 199/1/3 198/1/3
f 201/1/3 199/1/3 200/1/3
f 202/2/3 201/2/3 200/2/3
f 203/2/3 201/2/3 202/2/3
f 205/1/3 203/1/3 202/1/3
f 206/1/3 203/1/3 205/1/3
f 209/1/3 206/1/3 205/1/3
f 209/1/3 208/1/3 207/1/3
f 209/1/3 207/1/3 206/1/3
f 209/1/3 205/1/3 204/1/3
f 210/1/3 208/1/3 209/1/3
f 213/1/3 212/1/3 211/1/3
f 214/1/3 212/1/3 213/1/3
f 215/2/3 214/2/3 213/2/3
f 216/2/3 214/2/3 215/2/3
f 217/1/3 216/1/3 215/1/3
f 218/1/3 216/1/3 217/1/3
f 219/2/3 218/2/3 217/2/3
f 220/2/3 218/2/3 219/2/3
f 221/1/3 220/1/3 219/1/3
f 222/1/3 220/1/3 221/1/3
f 225/1/3 224/1/3 223/1/3
f 226/1/3 224/1/3 225/1/3
f 227/2/3 226/2/3 225/2/3
f 228/2/3 226/2/3 227/2/3
f 229/1/3 228/1/3 227/1/3
f 230/1/3 228/1/3 229/1/3
f 231/2/3 230/2/3 229/2/3
f 232/2/3 230/2/3 231/2/3
f 233/1/3 232/1/3 231/1/3
f 234/1/3 232/1/3 233/1/3
f 237/1/3 236/1/3 235/1/3
f 238/1/3 236/1/3 237/1/3
f 239/2/3 238/2/3 237/2/3
f 240/2/3 238/2/3 239/2/3
f 241/1/3 240/1/3 239/1/3
f 242/1/3 240/1/3 241/1/3
f 243/2/3 242/2/3 241/2/3
f 244/2/3 242/2/3 243/2/3
f 245/1/3 244/1/3 243/1/3
f 246/1/3 244/1/3 245/1/3
f 247/1/4 248/1/4 249/1/4
f 249/1/4 248/1/4 250/1/4
f 249/2/4 250/2/4 251/2/4
f 251/2/4 250/2/4 252/2/4
f 251/1/4 252/1/4 253/1/4
f 253/1/4 252/1/4 254/1/4
f 253/2/4 254/2/4 255/2/4
f 255/2/4 254/2/4 256/2/4
f 255/1/4 256/1/4 257/1/4
f 257/1/4 256/1/4 258/1/4
f 259/1/4 260/1/4 261/1/4
f 261/1/4 260/1/4 262/1/4
f 261/2/4 262/2/4 263/2/4
f 263/2/4 262/2/4 264/2/4
f 263/1/4 264/1/4 265/1/4
f 265/1/4 264/1/4 266/1/4
f 265/2/4 266/2/4 267/2/4
f 267/2/4 266/2/4 268/2/4
f 267/1/4 268/1/4 269/1/4
f 269/1/4 268/1/4 270/1/4
f 271/1/4 272/1/4 273/1/4
f 273/1/4 272/1/4 274/1/4
f 273/2/4 274/2/4 275/2/4
f 275/2/4 274/2/4 276/2/4
f 275/1/4 276/1/4 277/1/4
f 277/1/4 276/1/4 278/1/4
f 277/2/4 278/2/4 279/2/4
f 279/2/4 278/2/4 280/2/4
f 279/1/4 280/1/4 281/1/4
f 281/1/4 280/1/4 282/1/4
f 283/1/4 284/1/4 285/1/4
f 285/1/4 284/1/4 286/1/4
f 286/1/4 284/1/4 287/1/4
f 287/1/4 284/1/4 288/1/4
f 288/1/4 284/1/4 289/1/4
f 286/1/4 287/1/4 290/1/4
f 290/1/4 287/1/4 291/1/4
f 290/2/4 291/2/4 292/2/4
f 292/2/4 291/2/4 293/2/4
f 292/1/4 293/1/4 294/1/4
f 294/1/4 293/1/4 295/1/4
f 294/2/4 295/2/4 296/2/4
f 296/2/4 295/2/4 297/2/4
f 296/1/4 297/1/4 299/1/4
f 299/1/4 297/1/4 300/1/4
f 299/1/4 300/1/4 303/1/4
f 301/1/4 302/1/4 303/1/4
f 300/1/4 301/1/4 303/1/4
f 298/1/4 299/1/4 303/1/4
f 303/1/4 302/1/4 304/1/4
f 305/1/4 306/1/4 307/1/4
f 307/1/4 306/1/4 308/1/4
f 308/1/4 306/1/4 309/1/4
f 309/1/4 306/1/4 310/1/4
f 310/1/4 306/1/4 311/1/4
f 311/1/4 306/1/4 312/1/4
f 313/1/4 314/1/4 315/1/4
f 315/1/4 314/1/4 316/1/4
f 316/1/4 314/1/4 317/1/4
f 317/1/4 314/1/4 318/1/4
f 318/1/4 314/1/4 319/1/4
f 317/1/4 318/1/4 320/1/4
f 320/1/4 318/1/4 321/1/4
f 320/2/4 321/2/4 322/2/4
f 322/2/4 321/2/4 323/2/4
f 322/1/4 323/1/4 324/1/4
f 324/1/4 323/1/4 325/1/4
f 324/2/4 325/2/4 326/2/4
f 326/2/4 325/2/4 327/2/4
f 326/1/4 327/1/4 330/1/4
f 330/1/4 327/1/4 331/1/4
f 330/1/4 331/1/4 333/1/4
f 331/1/4 332/1/4 333/1/4
f 328/1/4 329/1/4 333/1/4
f 329/1/4 330/1/4 333/1/4
f 333/1/4 332/1/4 334/1/4
f 335/1/4 336/1/4 337/1/4
f 337/1/4 336/1/4 338/1/4
f 337/2/4 338/2/4 339/2/4
f 339/2/4 338/2/4 340/2/4
f 339/1/4 340/1/4 341/1/4
f 341/1/4 340/1/4 342/1/4
f 341/2/4 342/2/4 343/2/4
f 343/2/4 342/2/4 344/2/4
f 343/1/4 344/1/4 345/1/4
f 345/1/4 344/1/4 346/1/4
f 347/1/4 348/1/4 349/1/4
f 349/1/4 348/1/4 350/1/4
f 349/2/4 350/2/4 351/2/4
f 351/2/4 350/2/4 352/2/4
f 351/1/4 352/1/4 353/1/4
f 353/1/4 352/1/4 354/1/4
f 353/2/4 354/2/4 355/2/4
f 355/2/4 354/2/4 356/2/4
f 355/1/4 356/1/4 357/1/4
f 357/1/4 356/1/4 358/1/4
f 359/1/4 360/1/4 361/1/4
f 361/1/4 360/1/4 362/1/4
f 361/2/4 362/2/4 363/2/4
f 363/2/4 362/2/4 364/2/4
f 363/1/4 364/1/4 365/1/4
f 365/1/4 364/1/4 366/1/4
f 365/2/4 366/2/4 367/2/4
f 367/2/4 366/2/4 368/2/4
f 367/1/4 368/1/4 369/1/4
f 369/1/4 368/1/4 370/1/4
f 371/1/4 372/1/4 374/1/4
f 372/3/4 373/3/4 375/3/4
f 374/1/4 372/1/4 375/1/4
f 375/3/4 373/3/4 376/3/4
f 379/1/5 378/1/5 377/1/5
f 380/1/5 378/1/5 379/1/5
f 387/1/5 382/1/5 381/1/5
f 388/2/5 383/2/5 382/2/5
f 388/1/5 382/1/5 387/1/5
f 389/1/5 384/1/5 383/1/5
f 389/2/5 383/2/5 388/2/5
f 390/2/5 385/2/5 384/2/5
f 390/1/5 384/1/5 389/1/5
f 391/1/5 386/1/5 385/1/5
f 391/2/5 385/2/5 390/2/5
f 392/1/5 386/1/5 391/1/5
f 399/1/5 394/1/5 393/1/5
f 400/2/5 395/2/5 394/2/5
f 400/1/5 394/1/5 399/1/5
f 401/1/5 396/1/5 395/1/5
f 401/2/5 395/2/5 400/2/5
f 402/2/5 397/2/5 396/2/5
f 402/1/5 396/1/5 401/1/5
f 403/1/5 398/1/5 397/1/5
f 403/2/5 397/2/5 402/2/5
f 404/1/5 398/1/5 403/1/5
f 411/1/5 406/1/5 405/1/5
f 412/2/5 407/2/5 406/2/5
f 412/1/5 406/1/5 411/1/5
f 413/1/5 408/1/5 407/1/5
f 413/2/5 407/2/5 412/2/5
f 414/2/5 409/2/5 408/2/5
f 414/1/5 408/1/5 413/1/5
f 415/1/5 410/1/5 409/1/5
f 415/2/5 409/2/5 414/2/5
f 416/1/5 410/1/5 415/1/5
f 423/1/5 418/1/5 417/1/5
f 424/2/5 419/2/5 418/2/5
f 424/1/5 418/1/5 423/1/5
f 425/1/5 420/1/5 419/1/5
f 425/2/5 419/2/5 424/2/5
f 426/2/5 421/2/5 420/2/5
f 426/1/5 420/1/5 425/1/5
f 427/1/5 422/1/5 421/1/5
f 427/2/5 421/2/5 426/2/5
f 428/1/5 422/1/5 427/1/5
f 435/1/5 430/1/5 429/1/5
f 436/2/5 431/2/5 430/2/5
f 436/1/5 430/1/5 435/1/5
f 437/1/5 432/1/5 431/1/5
f 437/2/5 431/2/5 436/2/5
f 438/2/5 433/2/5 432/2/5
f 438/1/5 432/1/5 437/1/5
f 439/1/5 434/1/5 433/1/5
f 439/2/5 433/2/5 438/2/5
f 440/1/5 434/1/5 439/1/5
f 447/1/5 442/1/5 441/1/5
f 448/2/5 443/2/5 442/2/5
f 448/1/5 442/1/5 447/1/5
f 449/1/5 444/1/5 443/1/5
f 449/2/5 443/2/5 448/2/5
f 450/2/5 445/2/5 444/2/5
f 450/1/5 444/1/5 449/1/5
f 451/1/5 446/1/5 445/1/5
f 451/2/5 445/2/5 450/2/5
f 452/1/5 446/1/5 451/1/5
f 459/1/5 454/1/5 453/1/5
f 459/1/5 458/1/5 457/1/5
f 459/1/5 457/1/5 456/1/5
f 459/1/5 456/1/5 455/1/5
f 459/1/5 455/1/5 454/1/5
f 460/1/5 458/1/5 459/1/5
f 461/1/5 458/1/5 460/1/5
f 462/1/5 458/1/5 461/1/5
f 463/1/5 458/1/5 462/1/5
f 464/1/5 458/1/5 463/1/5
f 465/3/6 466/3/6 467/3/6
f 467/3/6 466/3/6 468/3/6
f 465/3/6 467/3/6 469/3/6
f 467/1/6 468/1/6 470/1/6
f 469/3/6 467/3/6 470/3/6
f 468/3/6 466/3/6 471/3/6
f 470/1/6 468/1/6 471/1/6
f 471/3/6 466/3/6 472/3/6
f 465/3/6 469/3/6 473/3/6
f 469/1/6 470/1/6 474/1/6
f 473/3/6 469/3/6 474/3/6
f 470/1/6 471/1/6 474/1/6
f 471/1/6 472/1/6 474/1/6
f 474/1/6 472/1/6 475/1/6
f 475/1/6 472/1/6 476/1/6
f 476/1/6 472/1/6 477/1/6
f 477/1/6 472/1/6 478/1/6
f 478/1/6 472/1/6 479/1/6
f 479/1/6 472/1/6 480/1/6
f 472/3/6 466/3/6 481/3/6
f 480/1/6 472/1/6 481/1/6
f 481/3/6 466/3/6 482/3/6
f 473/1/6 474/1/6 483/1/6
f 474/1/6 475/1/6 483/1/6
f 481/1/6 482/1/6 488/1/6
f 480/1/6 481/1/6 488/1/6
f 465/3/6 473/3/6 489/3/6
f 487/1/6 488/1/6 490/1/6
f 489/3/6 473/3/6 490/3/6
f 486/1/6 487/1/6 490/1/6
f 485/1/6 486/1/6 490/1/6
f 473/1/6 483/1/6 490/1/6
f 484/1/6 485/1/6 490/1/6
f 483/1/6 484/1/6 490/1/6
f 482/3/6 466/3/6 491/3/6
f 490/1/6 488/1/6 491/1/6
f 488/1/6 482/1/6 491/1/6
f 491/3/6 466/3/6 492/3/6
f 489/1/6 490/1/6 493/1/6
f 490/1/6 491/1/6 493/1/6
f 491/1/6 492/1/6 493/1/6
f 493/1/6 492/1/6 494/1/6
f 494/1/6 492/1/6 495/1/6
f 495/1/6 492/1/6 496/1/6
f 489/1/6 493/1/6 497/1/6
f 494/1/6 495/1/6 498/1/6
f 498/1/6 495/1/6 499/1/6
f 496/1/6 492/1/6 500/1/6
f 498/1/6 499/1/6 501/1/6
f 499/1/6 500/1/6 501/1/6
f 489/1/6 497/1/6 501/1/6
f 497/1/6 498/1/6 501/1/6
f 501/1/6 500/1/6 502/1/6
f 502/1/6 500/1/6 503/1/6
f 500/1/6 492/1/6 504/1/6
f 503/1/6 500/1/6 504/1/6
f 489/1/6 501/1/6 505/1/6
f 502/1/6 503/1/6 506/1/6
f 506/1/6 503/1/6 507/1/6
f 504/1/6 492/1/6 508/1/6
f 465/3/6 489/3/6 509/3/6
f 507/1/6 508/1/6 509/1/6
f 489/1/6 505/1/6 509/1/6
f 506/1/6 507/1/6 509/1/6
f 505/1/6 506/1/6 509/1/6
f 509/1/6 508/1/6 510/1/6
f 508/1/6 492/1/6 511/1/6
f 510/1/6 508/1/6 511/1/6
f 492/3/6 466/3/6 512/3/6
f 511/1/6 492/1/6 512/1/6
f 510/1/6 511/1/6 513/1/6
f 513/1/6 511/1/6 514/1/6
f 514/1/6 511/1/6 515/1/6
f 515/1/6 511/1/6 516/1/6
f 516/1/6 511/1/6 517/1/6
f 517/1/6 511/1/6 518/1/6
f 509/3/6 510/3/6 519/3/6
f 510/1/6 513/1/6 519/1/6
f 519/1/6 513/1/6 520/1/6
f 520/1/6 513/1/6 521/1/6
f 518/1/6 511/1/6 526/1/6
f 526/1/6 511/1/6 527/1/6
f 511/3/6 512/3/6 528/3/6
f 527/1/6 511/1/6 528/1/6
f 524/1/6 525/1/6 529/1/6
f 526/1/6 527/1/6 529/1/6
f 519/3/6 520/3/6 529/3/6
f 525/1/6 526/1/6 529/1/6
f 520/1/6 521/1/6 529/1/6
f 523/1/6 524/1/6 529/1/6
f 522/1/6 523/1/6 529/1/6
f 521/1/6 522/1/6 529/1/6
f 529/1/6 527/1/6 530/1/6
f 530/1/6 527/1/6 531/1/6
f 527/3/6 528/3/6 532/3/6
f 531/1/6 527/1/6 532/1/6
f 530/1/6 531/1/6 533/1/6
f 529/3/6 530/3/6 533/3/6
f 531/3/6 532/3/6 534/3/6
f 533/1/6 531/1/6 534/1/6
f 465/3/6 509/3/6 535/3/6
f 509/3/6 519/3/6 535/3/6
f 533/3/6 534/3/6 535/3/6
f 529/3/6 533/3/6 535/3/6
f 519/3/6 529/3/6 535/3/6
f 528/3/6 512/3/6 536/3/6
f 535/3/6 534/3/6 536/3/6
f 512/3/6 466/3/6 536/3/6
f 534/3/6 532/3/6 536/3/6
f 532/3/6 528/3/6 536/3/6
f 537/1/6 538/1/6 543/1/6
f 538/2/6 539/2/6 544/2/6
f 543/1/6 538/1/6 544/1/6
f 539/1/6 540/1/6 545/1/6
f 544/2/6 539/2/6 545/2/6
f 540/2/6 541/2/6 546/2/6
f 545/1/6 540/1/6 546/1/6
f 541/1/6 542/1/6 547/1/6
f 546/2/6 541/2/6 547/2/6
f 547/1/6 542/1/6 548/1/6
f 549/1/6 550/1/6 555/1/6
f 550/2/6 551/2/6 556/2/6
f 555/1/6 550/1/6 556/1/6
f 551/1/6 552/1/6 557/1/6
f 556/2/6 551/2/6 557/2/6
f 552/2/6 553/2/6 558/2/6
f 557/1/6 552/1/6 558/1/6
f 553/1/6 554/1/6 559/1/6
f 558/2/6 553/2/6 559/2/6
f 559/1/6 554/1/6 560/1/6
f 561/1/6 562/1/6 567/1/6
f 562/2/6 563/2/6 568/2/6
f 567/1/6 562/1/6 568/1/6
f 563/1/6 564/1/6 569/1/6
f 568/2/6 563/2/6 569/2/6
f 564/2/6 565/2/6 570/2/6
f 569/1/6 564/1/6 570/1/6
f 565/1/6 566/1/6 571/1/6
f 570/2/6 565/2/6 571/2/6
f 571/1/6 566/1/6 572/1/6
f 573/1/6 574/1/6 579/1/6
f 574/2/6 575/2/6 580/2/6
f 579/1/6 574/1/6 580/1/6
f 575/1/6 576/1/6 581/1/6
f 580/2/6 575/2/6 581/2/6
f 576/2/6 577/2/6 582/2/6
f 581/1/6 576/1/6 582/1/6
f 577/1/6 578/1/6 583/1/6
f 582/2/6 577/2/6 583/2/6
f 583/1/6 578/1/6 584/1/6
f 585/1/6 586/1/6 591/1/6
f 586/2/6 587/2/6 592/2/6
f 591/1/6 586/1/6 592/1/6
f 587/1/6 588/1/6 593/1/6
f 592/2/6 587/2/6 593/2/6
f 588/2/6 589/2/6 594/2/6
f 593/1/6 588/1/6 594/1/6
f 589/1/6 590/1/6 595/1/6
f 594/2/6 589/2/6 595/2/6
f 595/1/6 590/1/6 596/1/6
f 597/1/6 598/1/6 603/1/6
f 598/2/6 599/2/6 604/2/6
f 603/1/6 598/1/6 604/1/6
f 599/1/6 600/1/6 605/1/6
f 604/2/6 599/2/6 605/2/6
f 600/2/6 601/2/6 606/2/6
f 605/1/6 600/1/6 606/1/6
f 601/1/6 602/1/6 607/1/6
f 606/2/6 601/2/6 607/2/6
f 607/1/6 602/1/6 608/1/6
f 609/1/6 610/1/6 615/1/6
f 610/2/6 611/2/6 616/2/6
f 615/1/6 610/1/6 616/1/6
f 611/1/6 612/1/6 617/1/6
f 616/2/6 611/2/6 617/2/6
f 612/2/6 613/2/6 618/2/6
f 617/1/6 612/1/6 618/1/6
f 613/1/6 614/1/6 619/1/6
f 618/2/6 613/2/6 619/2/6
f 619/1/6 614/1/6 620/1/6
f 621/1/6 622/1/6 627/1/6
f 622/2/6 623/2/6 628/2/6
f 627/1/6 622/1/6 628/1/6
f 623/1/6 624/1/6 629/1/6
f 628/2/6 623/2/6 629/2/6
f 624/2/6 625/2/6 630/2/6
f 629/1/6 624/1/6 630/1/6
f 625/1/6 626/1/6 631/1/6
f 630/2/6 625/2/6 631/2/6
f 631/1/6 626/1/6 632/1/6
f 633/1/6 634/1/6 635/1/6
f 635/1/6 634/1/6 636/1/6
f 637/1/6 638/1/6 641/1/6
f 641/1/6 638/1/6 642/1/6
f 639/1/6 640/1/6 643/1/6
f 643/1/6 640/1/6 644/1/6
f 645/1/6 646/1/6 649/1/6
f 649/1/6 646/1/6 650/1/6
f 647/1/6 648/1/6 651/1/6
f 651/1/6 648/1/6 652/1/6
