# MagicaVoxel @ Ephtracy

# group
o 

# material
mtllib 11.mtl
usemtl palette

# normals
vn -1 0 0
vn 1 0 0
vn 0 0 1
vn 0 0 -1
vn 0 -1 0
vn 0 1 0

# texcoords
vt 0.208984 0.5
vt 0.283203 0.5
vt 0.962891 0.5
vt 0.970703 0.5

# verts
v -0.7 0 0.6
v -0.7 0 -0.6
v -0.7 0.2 0.6
v -0.7 0.2 -0.6
v -0.6 0 0.7
v -0.6 0 0.6
v -0.6 0 -0.6
v -0.6 0 -0.7
v -0.6 0.2 0.7
v -0.6 0.2 0.6
v -0.6 0.2 -0.6
v -0.6 0.2 -0.7
v -0.6 0.3 0.6
v -0.6 0.3 -0.6
v -0.5 0.3 0.5
v -0.5 0.3 -0.5
v -0.5 0.5 0.5
v -0.5 0.5 -0.5
v -0.4 0.4 0.6
v -0.4 0.4 0.5
v -0.4 0.5 0.5
v -0.4 0.5 0.4
v -0.4 0.5 -0.4
v -0.4 0.6 0.6
v -0.4 0.6 0.5
v -0.4 0.7 0.4
v -0.4 0.7 -0.4
v -0.4 1 0.6
v -0.4 1 0.5
v -0.4 1.2 0.6
v -0.4 1.2 0.5
v -0.3 0.6 0.6
v -0.3 0.6 0.5
v -0.3 0.7 0.6
v -0.3 0.7 0.5
v -0.3 0.7 0.3
v -0.3 0.7 -0.3
v -0.3 0.9 0.6
v -0.3 0.9 0.5
v -0.3 0.9 0.3
v -0.3 0.9 -0.3
v -0.3 1 0.6
v -0.3 1 0.5
v -0.2 0.9 0.2
v -0.2 0.9 -0.2
v -0.2 1.1 0.2
v -0.2 1.1 -0.2
v -0.1 0.7 0.7
v -0.1 0.7 0.6
v -0.1 0.7 0.5
v -0.1 0.7 0.4
v -0.1 0.7 0.3
v -0.1 0.9 0.7
v -0.1 0.9 0.6
v -0.1 0.9 0.5
v -0.1 0.9 0.3
v -0.1 1.1 0.1
v -0.1 1.1 -0.1
v -0.1 1.2 0.1
v -0.1 1.2 -0.1
v 0.1 0.5 0.6
v 0.1 0.5 0.5
v 0.1 0.7 0.6
v 0.1 0.7 0.5
v 0.1 0.9 0.6
v 0.1 0.9 0.5
v 0.1 1.1 0.6
v 0.1 1.1 0.5
v 0.2 0.4 0.6
v 0.2 0.4 0.5
v 0.2 0.5 0.6
v 0.2 0.5 0.5
v 0.2 1.1 0.6
v 0.2 1.1 0.5
v 0.2 1.2 0.6
v 0.2 1.2 0.5
v -0.2 0.4 0.6
v -0.2 0.4 0.5
v -0.2 0.5 0.6
v -0.2 0.5 0.5
v -0.2 1.1 0.6
v -0.2 1.1 0.5
v -0.2 1.2 0.6
v -0.2 1.2 0.5
v -0.1 0.5 0.6
v -0.1 0.5 0.5
v -0.1 0.7 0.6
v -0.1 0.7 0.5
v -0.1 0.9 0.6
v -0.1 0.9 0.5
v -0.1 1.1 0.6
v -0.1 1.1 0.5
v 0.1 0.7 0.7
v 0.1 0.7 0.6
v 0.1 0.7 0.5
v 0.1 0.7 0.4
v 0.1 0.7 0.3
v 0.1 0.9 0.7
v 0.1 0.9 0.6
v 0.1 0.9 0.5
v 0.1 0.9 0.3
v 0.1 1.1 0.1
v 0.1 1.1 -0.1
v 0.1 1.2 0.1
v 0.1 1.2 -0.1
v 0.2 0.9 0.2
v 0.2 0.9 -0.2
v 0.2 1.1 0.2
v 0.2 1.1 -0.2
v 0.3 0.6 0.6
v 0.3 0.6 0.5
v 0.3 0.7 0.6
v 0.3 0.7 0.5
v 0.3 0.7 0.3
v 0.3 0.7 -0.3
v 0.3 0.9 0.6
v 0.3 0.9 0.5
v 0.3 0.9 0.3
v 0.3 0.9 -0.3
v 0.3 1 0.6
v 0.3 1 0.5
v 0.4 0.4 0.6
v 0.4 0.4 0.5
v 0.4 0.5 0.5
v 0.4 0.5 0.4
v 0.4 0.5 -0.4
v 0.4 0.6 0.6
v 0.4 0.6 0.5
v 0.4 0.7 0.4
v 0.4 0.7 -0.4
v 0.4 1 0.6
v 0.4 1 0.5
v 0.4 1.2 0.6
v 0.4 1.2 0.5
v 0.5 0.3 0.5
v 0.5 0.3 -0.5
v 0.5 0.5 0.5
v 0.5 0.5 -0.5
v 0.6 0 0.7
v 0.6 0 0.6
v 0.6 0 -0.6
v 0.6 0 -0.7
v 0.6 0.2 0.7
v 0.6 0.2 0.6
v 0.6 0.2 -0.6
v 0.6 0.2 -0.7
v 0.6 0.3 0.6
v 0.6 0.3 -0.6
v 0.7 0 0.6
v 0.7 0 -0.6
v 0.7 0.2 0.6
v 0.7 0.2 -0.6
v -0.6 0 0.7
v -0.6 0.2 0.7
v -0.1 0.7 0.7
v -0.1 0.9 0.7
v 0.1 0.7 0.7
v 0.1 0.9 0.7
v 0.6 0 0.7
v 0.6 0.2 0.7
v -0.7 0 0.6
v -0.7 0.2 0.6
v -0.6 0 0.6
v -0.6 0.2 0.6
v -0.6 0.3 0.6
v -0.4 0.4 0.6
v -0.4 0.6 0.6
v -0.4 1 0.6
v -0.4 1.2 0.6
v -0.3 0.6 0.6
v -0.3 0.7 0.6
v -0.3 0.9 0.6
v -0.3 1 0.6
v -0.2 0.4 0.6
v -0.2 0.5 0.6
v -0.2 1.1 0.6
v -0.2 1.2 0.6
v -0.1 0.5 0.6
v -0.1 0.7 0.6
v -0.1 0.9 0.6
v -0.1 1.1 0.6
v 0.1 0.5 0.6
v 0.1 0.7 0.6
v 0.1 0.9 0.6
v 0.1 1.1 0.6
v 0.2 0.4 0.6
v 0.2 0.5 0.6
v 0.2 1.1 0.6
v 0.2 1.2 0.6
v 0.3 0.6 0.6
v 0.3 0.7 0.6
v 0.3 0.9 0.6
v 0.3 1 0.6
v 0.4 0.4 0.6
v 0.4 0.6 0.6
v 0.4 1 0.6
v 0.4 1.2 0.6
v 0.6 0 0.6
v 0.6 0.2 0.6
v 0.6 0.3 0.6
v 0.7 0 0.6
v 0.7 0.2 0.6
v -0.5 0.3 0.5
v -0.5 0.5 0.5
v -0.4 0.4 0.5
v -0.4 0.5 0.5
v -0.2 0.4 0.5
v -0.2 0.5 0.5
v -0.1 0.5 0.5
v 0.1 0.5 0.5
v 0.2 0.4 0.5
v 0.2 0.5 0.5
v 0.4 0.4 0.5
v 0.4 0.5 0.5
v 0.5 0.3 0.5
v 0.5 0.5 0.5
v -0.4 0.5 0.4
v -0.4 0.7 0.4
v -0.1 0.7 0.4
v 0.1 0.7 0.4
v 0.4 0.5 0.4
v 0.4 0.7 0.4
v -0.3 0.7 0.3
v -0.3 0.9 0.3
v -0.1 0.7 0.3
v -0.1 0.9 0.3
v 0.1 0.7 0.3
v 0.1 0.9 0.3
v 0.3 0.7 0.3
v 0.3 0.9 0.3
v -0.2 0.9 0.2
v -0.2 1.1 0.2
v 0.2 0.9 0.2
v 0.2 1.1 0.2
v -0.1 1.1 0.1
v -0.1 1.2 0.1
v 0.1 1.1 0.1
v 0.1 1.2 0.1
v -0.4 0.5 0.5
v -0.4 0.6 0.5
v -0.4 1 0.5
v -0.4 1.2 0.5
v -0.3 0.6 0.5
v -0.3 0.7 0.5
v -0.3 0.9 0.5
v -0.3 1 0.5
v -0.2 1.1 0.5
v -0.2 1.2 0.5
v -0.1 0.5 0.5
v -0.1 0.7 0.5
v -0.1 0.9 0.5
v -0.1 1.1 0.5
v 0.1 0.5 0.5
v 0.1 0.7 0.5
v 0.1 0.9 0.5
v 0.1 1.1 0.5
v 0.2 1.1 0.5
v 0.2 1.2 0.5
v 0.3 0.6 0.5
v 0.3 0.7 0.5
v 0.3 0.9 0.5
v 0.3 1 0.5
v 0.4 0.5 0.5
v 0.4 0.6 0.5
v 0.4 1 0.5
v 0.4 1.2 0.5
v -0.1 1.1 -0.1
v -0.1 1.2 -0.1
v 0.1 1.1 -0.1
v 0.1 1.2 -0.1
v -0.2 0.9 -0.2
v -0.2 1.1 -0.2
v 0.2 0.9 -0.2
v 0.2 1.1 -0.2
v -0.3 0.7 -0.3
v -0.3 0.9 -0.3
v 0.3 0.7 -0.3
v 0.3 0.9 -0.3
v -0.4 0.5 -0.4
v -0.4 0.7 -0.4
v 0.4 0.5 -0.4
v 0.4 0.7 -0.4
v -0.5 0.3 -0.5
v -0.5 0.5 -0.5
v 0.5 0.3 -0.5
v 0.5 0.5 -0.5
v -0.7 0 -0.6
v -0.7 0.2 -0.6
v -0.6 0 -0.6
v -0.6 0.2 -0.6
v -0.6 0.3 -0.6
v 0.6 0 -0.6
v 0.6 0.2 -0.6
v 0.6 0.3 -0.6
v 0.7 0 -0.6
v 0.7 0.2 -0.6
v -0.6 0 -0.7
v -0.6 0.2 -0.7
v 0.6 0 -0.7
v 0.6 0.2 -0.7
v -0.6 0 0.7
v 0.6 0 0.7
v -0.7 0 0.6
v -0.6 0 0.6
v 0.6 0 0.6
v 0.7 0 0.6
v -0.7 0 -0.6
v -0.6 0 -0.6
v 0.6 0 -0.6
v 0.7 0 -0.6
v -0.6 0 -0.7
v 0.6 0 -0.7
v -0.4 0.4 0.6
v -0.2 0.4 0.6
v 0.2 0.4 0.6
v 0.4 0.4 0.6
v -0.4 0.4 0.5
v -0.2 0.4 0.5
v 0.2 0.4 0.5
v 0.4 0.4 0.5
v -0.2 0.5 0.6
v -0.1 0.5 0.6
v 0.1 0.5 0.6
v 0.2 0.5 0.6
v -0.2 0.5 0.5
v -0.1 0.5 0.5
v 0.1 0.5 0.5
v 0.2 0.5 0.5
v -0.1 0.7 0.7
v 0.1 0.7 0.7
v -0.1 0.7 0.6
v 0.1 0.7 0.6
v -0.1 0.7 0.5
v 0.1 0.7 0.5
v -0.1 0.7 0.4
v 0.1 0.7 0.4
v -0.3 0.9 0.6
v -0.1 0.9 0.6
v 0.1 0.9 0.6
v 0.3 0.9 0.6
v -0.3 0.9 0.5
v -0.1 0.9 0.5
v 0.1 0.9 0.5
v 0.3 0.9 0.5
v -0.4 1 0.6
v -0.3 1 0.6
v 0.3 1 0.6
v 0.4 1 0.6
v -0.4 1 0.5
v -0.3 1 0.5
v 0.3 1 0.5
v 0.4 1 0.5
v -0.6 0.2 0.7
v 0.6 0.2 0.7
v -0.7 0.2 0.6
v -0.6 0.2 0.6
v 0.6 0.2 0.6
v 0.7 0.2 0.6
v -0.7 0.2 -0.6
v -0.6 0.2 -0.6
v 0.6 0.2 -0.6
v 0.7 0.2 -0.6
v -0.6 0.2 -0.7
v 0.6 0.2 -0.7
v -0.6 0.3 0.6
v 0.6 0.3 0.6
v -0.5 0.3 0.5
v 0.5 0.3 0.5
v -0.5 0.3 -0.5
v 0.5 0.3 -0.5
v -0.6 0.3 -0.6
v 0.6 0.3 -0.6
v -0.5 0.5 0.5
v -0.4 0.5 0.5
v -0.1 0.5 0.5
v 0.1 0.5 0.5
v 0.4 0.5 0.5
v 0.5 0.5 0.5
v -0.4 0.5 0.4
v 0.4 0.5 0.4
v -0.4 0.5 -0.4
v 0.4 0.5 -0.4
v -0.5 0.5 -0.5
v 0.5 0.5 -0.5
v -0.4 0.6 0.6
v -0.3 0.6 0.6
v 0.3 0.6 0.6
v 0.4 0.6 0.6
v -0.4 0.6 0.5
v -0.3 0.6 0.5
v 0.3 0.6 0.5
v 0.4 0.6 0.5
v -0.3 0.7 0.6
v -0.1 0.7 0.6
v 0.1 0.7 0.6
v 0.3 0.7 0.6
v -0.3 0.7 0.5
v -0.1 0.7 0.5
v 0.1 0.7 0.5
v 0.3 0.7 0.5
v -0.4 0.7 0.4
v -0.1 0.7 0.4
v 0.1 0.7 0.4
v 0.4 0.7 0.4
v -0.3 0.7 0.3
v -0.1 0.7 0.3
v 0.1 0.7 0.3
v 0.3 0.7 0.3
v -0.3 0.7 -0.3
v 0.3 0.7 -0.3
v -0.4 0.7 -0.4
v 0.4 0.7 -0.4
v -0.1 0.9 0.7
v 0.1 0.9 0.7
v -0.1 0.9 0.6
v 0.1 0.9 0.6
v -0.1 0.9 0.5
v 0.1 0.9 0.5
v -0.3 0.9 0.3
v -0.1 0.9 0.3
v 0.1 0.9 0.3
v 0.3 0.9 0.3
v -0.2 0.9 0.2
v 0.2 0.9 0.2
v -0.2 0.9 -0.2
v 0.2 0.9 -0.2
v -0.3 0.9 -0.3
v 0.3 0.9 -0.3
v -0.2 1.1 0.6
v -0.1 1.1 0.6
v 0.1 1.1 0.6
v 0.2 1.1 0.6
v -0.2 1.1 0.5
v -0.1 1.1 0.5
v 0.1 1.1 0.5
v 0.2 1.1 0.5
v -0.2 1.1 0.2
v 0.2 1.1 0.2
v -0.1 1.1 0.1
v 0.1 1.1 0.1
v -0.1 1.1 -0.1
v 0.1 1.1 -0.1
v -0.2 1.1 -0.2
v 0.2 1.1 -0.2
v -0.4 1.2 0.6
v -0.2 1.2 0.6
v 0.2 1.2 0.6
v 0.4 1.2 0.6
v -0.4 1.2 0.5
v -0.2 1.2 0.5
v 0.2 1.2 0.5
v 0.4 1.2 0.5
v -0.1 1.2 0.1
v 0.1 1.2 0.1
v -0.1 1.2 -0.1
v 0.1 1.2 -0.1

# faces
f 3/4/1 2/4/1 1/4/1
f 4/4/1 2/4/1 3/4/1
f 9/4/1 6/4/1 5/4/1
f 10/4/1 6/4/1 9/4/1
f 11/4/1 8/4/1 7/4/1
f 12/4/1 8/4/1 11/4/1
f 13/4/1 11/4/1 10/4/1
f 14/4/1 11/4/1 13/4/1
f 17/2/1 16/2/1 15/2/1
f 18/2/1 16/2/1 17/2/1
f 21/3/1 20/3/1 19/3/1
f 24/3/1 21/3/1 19/3/1
f 25/3/1 21/3/1 24/3/1
f 26/2/1 23/2/1 22/2/1
f 27/2/1 23/2/1 26/2/1
f 30/3/1 29/3/1 28/3/1
f 31/3/1 29/3/1 30/3/1
f 34/3/1 33/3/1 32/3/1
f 35/3/1 33/3/1 34/3/1
f 40/2/1 37/2/1 36/2/1
f 41/2/1 37/2/1 40/2/1
f 42/3/1 39/3/1 38/3/1
f 43/3/1 39/3/1 42/3/1
f 46/1/1 45/1/1 44/1/1
f 47/1/1 45/1/1 46/1/1
f 53/1/1 49/1/1 48/1/1
f 54/2/1 52/2/1 51/2/1
f 54/1/1 49/1/1 53/1/1
f 54/2/1 50/2/1 49/2/1
f 54/2/1 51/2/1 50/2/1
f 55/2/1 52/2/1 54/2/1
f 56/2/1 52/2/1 55/2/1
f 59/1/1 58/1/1 57/1/1
f 60/1/1 58/1/1 59/1/1
f 63/3/1 62/3/1 61/3/1
f 64/3/1 62/3/1 63/3/1
f 67/3/1 66/3/1 65/3/1
f 68/3/1 66/3/1 67/3/1
f 71/3/1 70/3/1 69/3/1
f 72/3/1 70/3/1 71/3/1
f 75/3/1 74/3/1 73/3/1
f 76/3/1 74/3/1 75/3/1
f 77/3/2 78/3/2 79/3/2
f 79/3/2 78/3/2 80/3/2
f 81/3/2 82/3/2 83/3/2
f 83/3/2 82/3/2 84/3/2
f 85/3/2 86/3/2 87/3/2
f 87/3/2 86/3/2 88/3/2
f 89/3/2 90/3/2 91/3/2
f 91/3/2 90/3/2 92/3/2
f 93/1/2 94/1/2 98/1/2
f 96/2/2 97/2/2 99/2/2
f 98/1/2 94/1/2 99/1/2
f 94/2/2 95/2/2 99/2/2
f 95/2/2 96/2/2 99/2/2
f 99/2/2 97/2/2 100/2/2
f 100/2/2 97/2/2 101/2/2
f 102/1/2 103/1/2 104/1/2
f 104/1/2 103/1/2 105/1/2
f 106/1/2 107/1/2 108/1/2
f 108/1/2 107/1/2 109/1/2
f 110/3/2 111/3/2 112/3/2
f 112/3/2 111/3/2 113/3/2
f 114/2/2 115/2/2 118/2/2
f 118/2/2 115/2/2 119/2/2
f 116/3/2 117/3/2 120/3/2
f 120/3/2 117/3/2 121/3/2
f 122/3/2 123/3/2 124/3/2
f 122/3/2 124/3/2 127/3/2
f 127/3/2 124/3/2 128/3/2
f 125/2/2 126/2/2 129/2/2
f 129/2/2 126/2/2 130/2/2
f 131/3/2 132/3/2 133/3/2
f 133/3/2 132/3/2 134/3/2
f 135/2/2 136/2/2 137/2/2
f 137/2/2 136/2/2 138/2/2
f 139/4/2 140/4/2 143/4/2
f 143/4/2 140/4/2 144/4/2
f 141/4/2 142/4/2 145/4/2
f 145/4/2 142/4/2 146/4/2
f 144/4/2 145/4/2 147/4/2
f 147/4/2 145/4/2 148/4/2
f 149/4/2 150/4/2 151/4/2
f 151/4/2 150/4/2 152/4/2
f 157/1/3 156/1/3 155/1/3
f 158/1/3 156/1/3 157/1/3
f 159/4/3 154/4/3 153/4/3
f 160/4/3 154/4/3 159/4/3
f 163/4/3 162/4/3 161/4/3
f 164/4/3 162/4/3 163/4/3
f 170/3/3 167/3/3 166/3/3
f 173/3/3 169/3/3 168/3/3
f 174/3/3 171/3/3 170/3/3
f 174/3/3 170/3/3 166/3/3
f 175/3/3 171/3/3 174/3/3
f 176/3/3 173/3/3 172/3/3
f 176/3/3 169/3/3 173/3/3
f 177/3/3 169/3/3 176/3/3
f 178/3/3 171/3/3 175/3/3
f 179/3/3 171/3/3 178/3/3
f 180/3/3 176/3/3 172/3/3
f 181/3/3 176/3/3 180/3/3
f 187/3/3 183/3/3 182/3/3
f 188/3/3 185/3/3 184/3/3
f 190/3/3 187/3/3 186/3/3
f 190/3/3 183/3/3 187/3/3
f 191/3/3 183/3/3 190/3/3
f 192/3/3 188/3/3 184/3/3
f 192/3/3 189/3/3 188/3/3
f 193/3/3 189/3/3 192/3/3
f 194/3/3 190/3/3 186/3/3
f 195/3/3 190/3/3 194/3/3
f 196/3/3 189/3/3 193/3/3
f 197/3/3 189/3/3 196/3/3
f 199/4/3 165/4/3 164/4/3
f 200/4/3 165/4/3 199/4/3
f 201/4/3 199/4/3 198/4/3
f 202/4/3 199/4/3 201/4/3
f 205/2/3 204/2/3 203/2/3
f 206/2/3 204/2/3 205/2/3
f 207/2/3 205/2/3 203/2/3
f 209/2/3 208/2/3 207/2/3
f 210/2/3 209/2/3 207/2/3
f 211/2/3 207/2/3 203/2/3
f 211/2/3 210/2/3 207/2/3
f 212/2/3 210/2/3 211/2/3
f 213/2/3 211/2/3 203/2/3
f 215/2/3 213/2/3 203/2/3
f 215/2/3 214/2/3 213/2/3
f 216/2/3 214/2/3 215/2/3
f 219/2/3 218/2/3 217/2/3
f 220/2/3 219/2/3 217/2/3
f 221/2/3 220/2/3 217/2/3
f 222/2/3 220/2/3 221/2/3
f 225/2/3 224/2/3 223/2/3
f 226/2/3 224/2/3 225/2/3
f 229/2/3 228/2/3 227/2/3
f 230/2/3 228/2/3 229/2/3
f 233/1/3 232/1/3 231/1/3
f 234/1/3 232/1/3 233/1/3
f 237/1/3 236/1/3 235/1/3
f 238/1/3 236/1/3 237/1/3
f 239/3/4 240/3/4 243/3/4
f 241/3/4 242/3/4 246/3/4
f 246/3/4 242/3/4 247/3/4
f 245/3/4 246/3/4 247/3/4
f 247/3/4 242/3/4 248/3/4
f 243/3/4 244/3/4 249/3/4
f 239/3/4 243/3/4 249/3/4
f 249/3/4 244/3/4 250/3/4
f 245/3/4 247/3/4 251/3/4
f 251/3/4 247/3/4 252/3/4
f 255/3/4 256/3/4 257/3/4
f 253/3/4 254/3/4 259/3/4
f 259/3/4 254/3/4 260/3/4
f 255/3/4 257/3/4 261/3/4
f 257/3/4 258/3/4 261/3/4
f 261/3/4 258/3/4 262/3/4
f 253/3/4 259/3/4 263/3/4
f 263/3/4 259/3/4 264/3/4
f 262/3/4 258/3/4 265/3/4
f 265/3/4 258/3/4 266/3/4
f 267/1/4 268/1/4 269/1/4
f 269/1/4 268/1/4 270/1/4
f 271/1/4 272/1/4 273/1/4
f 273/1/4 272/1/4 274/1/4
f 275/2/4 276/2/4 277/2/4
f 277/2/4 276/2/4 278/2/4
f 279/2/4 280/2/4 281/2/4
f 281/2/4 280/2/4 282/2/4
f 283/2/4 284/2/4 285/2/4
f 285/2/4 284/2/4 286/2/4
f 287/4/4 288/4/4 289/4/4
f 289/4/4 288/4/4 290/4/4
f 290/4/4 291/4/4 293/4/4
f 293/4/4 291/4/4 294/4/4
f 292/4/4 293/4/4 295/4/4
f 295/4/4 293/4/4 296/4/4
f 297/4/4 298/4/4 299/4/4
f 299/4/4 298/4/4 300/4/4
f 304/4/5 302/4/5 301/4/5
f 305/4/5 302/4/5 304/4/5
f 307/4/5 304/4/5 303/4/5
f 307/4/5 306/4/5 305/4/5
f 307/4/5 305/4/5 304/4/5
f 308/4/5 306/4/5 307/4/5
f 309/4/5 306/4/5 308/4/5
f 310/4/5 306/4/5 309/4/5
f 311/4/5 309/4/5 308/4/5
f 312/4/5 309/4/5 311/4/5
f 317/3/5 314/3/5 313/3/5
f 318/3/5 314/3/5 317/3/5
f 319/3/5 316/3/5 315/3/5
f 320/3/5 316/3/5 319/3/5
f 325/3/5 322/3/5 321/3/5
f 326/3/5 322/3/5 325/3/5
f 327/3/5 324/3/5 323/3/5
f 328/3/5 324/3/5 327/3/5
f 331/1/5 330/1/5 329/1/5
f 332/1/5 330/1/5 331/1/5
f 333/2/5 332/2/5 331/2/5
f 334/2/5 332/2/5 333/2/5
f 335/2/5 334/2/5 333/2/5
f 336/2/5 334/2/5 335/2/5
f 341/3/5 338/3/5 337/3/5
f 342/3/5 338/3/5 341/3/5
f 343/3/5 340/3/5 339/3/5
f 344/3/5 340/3/5 343/3/5
f 349/3/5 346/3/5 345/3/5
f 350/3/5 346/3/5 349/3/5
f 351/3/5 348/3/5 347/3/5
f 352/3/5 348/3/5 351/3/5
f 353/4/6 354/4/6 356/4/6
f 356/4/6 354/4/6 357/4/6
f 355/4/6 356/4/6 359/4/6
f 359/4/6 356/4/6 360/4/6
f 357/4/6 358/4/6 361/4/6
f 361/4/6 358/4/6 362/4/6
f 360/4/6 361/4/6 363/4/6
f 363/4/6 361/4/6 364/4/6
f 365/4/6 366/4/6 367/4/6
f 367/4/6 366/4/6 368/4/6
f 365/4/6 367/4/6 369/4/6
f 368/4/6 366/4/6 370/4/6
f 365/4/6 369/4/6 371/4/6
f 369/4/6 370/4/6 371/4/6
f 370/4/6 366/4/6 372/4/6
f 371/4/6 370/4/6 372/4/6
f 373/2/6 374/2/6 379/2/6
f 377/2/6 378/2/6 379/2/6
f 376/2/6 377/2/6 379/2/6
f 375/2/6 376/2/6 379/2/6
f 374/2/6 375/2/6 379/2/6
f 379/2/6 378/2/6 380/2/6
f 373/2/6 379/2/6 381/2/6
f 380/2/6 378/2/6 382/2/6
f 373/2/6 381/2/6 383/2/6
f 381/2/6 382/2/6 383/2/6
f 382/2/6 378/2/6 384/2/6
f 383/2/6 382/2/6 384/2/6
f 385/3/6 386/3/6 389/3/6
f 389/3/6 386/3/6 390/3/6
f 387/3/6 388/3/6 391/3/6
f 391/3/6 388/3/6 392/3/6
f 393/3/6 394/3/6 397/3/6
f 397/3/6 394/3/6 398/3/6
f 395/3/6 396/3/6 399/3/6
f 399/3/6 396/3/6 400/3/6
f 401/2/6 402/2/6 405/2/6
f 405/2/6 402/2/6 406/2/6
f 403/2/6 404/2/6 407/2/6
f 407/2/6 404/2/6 408/2/6
f 401/2/6 405/2/6 409/2/6
f 408/2/6 404/2/6 410/2/6
f 401/2/6 409/2/6 411/2/6
f 409/2/6 410/2/6 411/2/6
f 410/2/6 404/2/6 412/2/6
f 411/2/6 410/2/6 412/2/6
f 413/1/6 414/1/6 415/1/6
f 415/1/6 414/1/6 416/1/6
f 415/2/6 416/2/6 417/2/6
f 417/2/6 416/2/6 418/2/6
f 417/2/6 418/2/6 420/2/6
f 420/2/6 418/2/6 421/2/6
f 420/2/6 421/2/6 423/2/6
f 421/2/6 422/2/6 423/2/6
f 419/2/6 420/2/6 423/2/6
f 423/2/6 422/2/6 424/2/6
f 419/2/6 423/2/6 425/2/6
f 424/2/6 422/2/6 426/2/6
f 419/2/6 425/2/6 427/2/6
f 425/2/6 426/2/6 427/2/6
f 426/2/6 422/2/6 428/2/6
f 427/2/6 426/2/6 428/2/6
f 429/3/6 430/3/6 433/3/6
f 433/3/6 430/3/6 434/3/6
f 431/3/6 432/3/6 435/3/6
f 435/3/6 432/3/6 436/3/6
f 437/1/6 438/1/6 439/1/6
f 439/1/6 438/1/6 440/1/6
f 437/1/6 439/1/6 441/1/6
f 440/1/6 438/1/6 442/1/6
f 437/1/6 441/1/6 443/1/6
f 441/1/6 442/1/6 443/1/6
f 442/1/6 438/1/6 444/1/6
f 443/1/6 442/1/6 444/1/6
f 445/3/6 446/3/6 449/3/6
f 449/3/6 446/3/6 450/3/6
f 447/3/6 448/3/6 451/3/6
f 451/3/6 448/3/6 452/3/6
f 453/1/6 454/1/6 455/1/6
f 455/1/6 454/1/6 456/1/6
