# MagicaVoxel @ Ephtracy

# group
o 

# material
mtllib 21.mtl
usemtl palette

# normals
vn -1 0 0
vn 1 0 0
vn 0 0 1
vn 0 0 -1
vn 0 -1 0
vn 0 1 0

# texcoords
vt 0.412109 0.5
vt 0.427734 0.5
vt 0.958984 0.5
vt 0.974609 0.5

# verts
v -0.8 0 0.8
v -0.8 0 -0.8
v -0.8 1.5 0.8
v -0.8 1.5 -0.8
v -0.8 1.6 0.8
v -0.8 1.6 -0.8
v 0.5 1.5 0.8
v 0.5 1.5 -0.8
v 0.5 1.6 0.8
v 0.5 1.6 -0.8
v -0.5 1.5 0.8
v -0.5 1.5 -0.8
v -0.5 1.6 0.8
v -0.5 1.6 -0.8
v 0.8 0 0.8
v 0.8 0 -0.8
v 0.8 1.5 0.8
v 0.8 1.5 -0.8
v 0.8 1.6 0.8
v 0.8 1.6 -0.8
v -0.8 0 0.8
v -0.8 1.5 0.8
v -0.8 1.6 0.8
v -0.5 1.5 0.8
v -0.5 1.6 0.8
v -0.4 1.4 0.8
v -0.4 1.5 0.8
v -0.3 1.4 0.8
v -0.3 1.5 0.8
v -0.1 1.4 0.8
v -0.1 1.5 0.8
v 0.1 1.4 0.8
v 0.1 1.5 0.8
v 0.3 1.4 0.8
v 0.3 1.5 0.8
v 0.4 1.4 0.8
v 0.4 1.5 0.8
v 0.5 1.5 0.8
v 0.5 1.6 0.8
v 0.8 0 0.8
v 0.8 1.5 0.8
v 0.8 1.6 0.8
v -0.8 0 -0.8
v -0.8 1.5 -0.8
v -0.8 1.6 -0.8
v -0.5 1.5 -0.8
v -0.5 1.6 -0.8
v -0.4 1.4 -0.8
v -0.4 1.5 -0.8
v -0.3 1.4 -0.8
v -0.3 1.5 -0.8
v -0.1 1.4 -0.8
v -0.1 1.5 -0.8
v 0.1 1.4 -0.8
v 0.1 1.5 -0.8
v 0.3 1.4 -0.8
v 0.3 1.5 -0.8
v 0.4 1.4 -0.8
v 0.4 1.5 -0.8
v 0.5 1.5 -0.8
v 0.5 1.6 -0.8
v 0.8 0 -0.8
v 0.8 1.5 -0.8
v 0.8 1.6 -0.8
v -0.8 0 0.8
v 0.8 0 0.8
v -0.8 0 -0.8
v 0.8 0 -0.8
v -0.5 1.5 0.8
v -0.4 1.5 0.8
v -0.3 1.5 0.8
v -0.1 1.5 0.8
v 0.1 1.5 0.8
v 0.3 1.5 0.8
v 0.4 1.5 0.8
v 0.5 1.5 0.8
v -0.5 1.5 -0.8
v -0.4 1.5 -0.8
v -0.3 1.5 -0.8
v -0.1 1.5 -0.8
v 0.1 1.5 -0.8
v 0.3 1.5 -0.8
v 0.4 1.5 -0.8
v 0.5 1.5 -0.8
v -0.8 1.6 0.8
v -0.5 1.6 0.8
v 0.5 1.6 0.8
v 0.8 1.6 0.8
v -0.8 1.6 -0.8
v -0.5 1.6 -0.8
v 0.5 1.6 -0.8
v 0.8 1.6 -0.8

# faces
f 3/4/1 2/4/1 1/4/1
f 4/4/1 2/4/1 3/4/1
f 5/1/1 4/1/1 3/1/1
f 6/1/1 4/1/1 5/1/1
f 9/1/1 8/1/1 7/1/1
f 10/1/1 8/1/1 9/1/1
f 11/1/2 12/1/2 13/1/2
f 13/1/2 12/1/2 14/1/2
f 15/4/2 16/4/2 17/4/2
f 17/4/2 16/4/2 18/4/2
f 17/1/2 18/1/2 19/1/2
f 19/1/2 18/1/2 20/1/2
f 24/4/3 22/4/3 21/4/3
f 24/1/3 23/1/3 22/1/3
f 25/1/3 23/1/3 24/1/3
f 26/4/3 24/4/3 21/4/3
f 27/4/3 24/4/3 26/4/3
f 28/4/3 26/4/3 21/4/3
f 28/3/3 27/3/3 26/3/3
f 29/3/3 27/3/3 28/3/3
f 30/4/3 28/4/3 21/4/3
f 30/4/3 29/4/3 28/4/3
f 31/4/3 29/4/3 30/4/3
f 32/4/3 30/4/3 21/4/3
f 32/2/3 31/2/3 30/2/3
f 33/2/3 31/2/3 32/2/3
f 34/4/3 32/4/3 21/4/3
f 34/4/3 33/4/3 32/4/3
f 35/4/3 33/4/3 34/4/3
f 36/4/3 34/4/3 21/4/3
f 36/3/3 35/3/3 34/3/3
f 37/3/3 35/3/3 36/3/3
f 38/4/3 37/4/3 36/4/3
f 40/4/3 38/4/3 36/4/3
f 40/4/3 36/4/3 21/4/3
f 41/1/3 39/1/3 38/1/3
f 41/4/3 38/4/3 40/4/3
f 42/1/3 39/1/3 41/1/3
f 43/4/4 44/4/4 46/4/4
f 44/1/4 45/1/4 46/1/4
f 46/1/4 45/1/4 47/1/4
f 43/4/4 46/4/4 48/4/4
f 48/4/4 46/4/4 49/4/4
f 43/4/4 48/4/4 50/4/4
f 48/3/4 49/3/4 50/3/4
f 50/3/4 49/3/4 51/3/4
f 43/4/4 50/4/4 52/4/4
f 50/4/4 51/4/4 52/4/4
f 52/4/4 51/4/4 53/4/4
f 43/4/4 52/4/4 54/4/4
f 52/2/4 53/2/4 54/2/4
f 54/2/4 53/2/4 55/2/4
f 43/4/4 54/4/4 56/4/4
f 54/4/4 55/4/4 56/4/4
f 56/4/4 55/4/4 57/4/4
f 43/4/4 56/4/4 58/4/4
f 56/3/4 57/3/4 58/3/4
f 58/3/4 57/3/4 59/3/4
f 58/4/4 59/4/4 60/4/4
f 58/4/4 60/4/4 62/4/4
f 43/4/4 58/4/4 62/4/4
f 60/1/4 61/1/4 63/1/4
f 62/4/4 60/4/4 63/4/4
f 63/1/4 61/1/4 64/1/4
f 67/4/5 66/4/5 65/4/5
f 68/4/5 66/4/5 67/4/5
f 69/4/6 70/4/6 77/4/6
f 70/3/6 71/3/6 78/3/6
f 77/4/6 70/4/6 78/4/6
f 71/4/6 72/4/6 79/4/6
f 78/3/6 71/3/6 79/3/6
f 72/2/6 73/2/6 80/2/6
f 79/4/6 72/4/6 80/4/6
f 73/4/6 74/4/6 81/4/6
f 80/2/6 73/2/6 81/2/6
f 74/3/6 75/3/6 82/3/6
f 81/4/6 74/4/6 82/4/6
f 75/4/6 76/4/6 83/4/6
f 82/3/6 75/3/6 83/3/6
f 83/4/6 76/4/6 84/4/6
f 85/1/6 86/1/6 89/1/6
f 89/1/6 86/1/6 90/1/6
f 87/1/6 88/1/6 91/1/6
f 91/1/6 88/1/6 92/1/6
